<svg width="24" height="24" viewBox="0 0 24 24" fill="none" xmlns="http://www.w3.org/2000/svg">
<g clip-path="url(#clip0_92_4096)">
<path d="M12.0039 0C6.99403 0 5.52882 0.00517032 5.24402 0.0287999C4.21591 0.114284 3.57615 0.276208 2.87917 0.623305C2.34205 0.890106 1.91843 1.19936 1.50035 1.63287C0.73896 2.42346 0.277507 3.3961 0.110458 4.55226C0.0292467 5.11354 0.00561688 5.228 0.000818394 8.09496C-0.00102299 9.05061 0.000818394 10.3083 0.000818394 11.9953C0.000818394 17.0025 0.00635159 18.4666 0.0303531 18.7509C0.113415 19.7516 0.270305 20.3812 0.602552 21.0699C1.23751 22.3882 2.4502 23.3778 3.87886 23.7471C4.37354 23.8745 4.9199 23.9446 5.6213 23.9778C5.91848 23.9908 8.94744 24 11.9783 24C15.0091 24 18.0399 23.9963 18.3297 23.9815C19.1418 23.9433 19.6134 23.88 20.1349 23.7452C21.5728 23.3741 22.7633 22.3992 23.4112 21.0625C23.737 20.3905 23.9022 19.7369 23.9769 18.7884C23.9932 18.5816 24 15.2847 24 11.9922C24 8.69907 23.9926 5.40821 23.9764 5.20142C23.9007 4.23765 23.7355 3.5896 23.3992 2.90461C23.1232 2.34388 22.8168 1.92514 22.372 1.49699C21.5781 0.738523 20.6072 0.276943 19.4503 0.110039C18.8897 0.0289815 18.778 0.00497991 15.9096 0H12.0039Z" fill="#1A1A18"/>
<path d="M12.0042 3.08203C9.58076 3.08203 9.27662 3.09262 8.32479 3.1359C7.37483 3.17937 6.72639 3.32966 6.15901 3.55017C5.57212 3.77791 5.07426 4.08257 4.57828 4.57837C4.08192 5.074 3.77703 5.57148 3.54837 6.15775C3.32714 6.7249 3.17656 7.37303 3.1338 8.32193C3.09124 9.27304 3.08008 9.57714 3.08008 11.9988C3.08008 14.4204 3.09086 14.7234 3.13399 15.6745C3.17768 16.6238 3.32808 17.2717 3.54855 17.8387C3.77666 18.4252 4.08154 18.9226 4.57771 19.4183C5.07353 19.9143 5.57137 20.2197 6.1579 20.4474C6.72564 20.6679 7.37427 20.8182 8.32405 20.8617C9.27588 20.9049 9.57983 20.9155 12.0031 20.9155C14.4267 20.9155 14.7299 20.905 15.6817 20.8617C16.6317 20.8182 17.2809 20.6679 17.8486 20.4474C18.4354 20.2197 18.9325 19.9143 19.4283 19.4183C19.9246 18.9226 20.2295 18.4252 20.4582 17.8389C20.6775 17.2717 20.8281 16.6236 20.8727 15.6747C20.9155 14.7236 20.9266 14.4204 20.9266 11.9988C20.9266 9.57714 20.9155 9.27323 20.8727 8.32211C20.8281 7.37284 20.6775 6.7249 20.4582 6.15794C20.2295 5.57148 19.9246 5.07399 19.4283 4.57837C18.9319 4.08238 18.4355 3.77772 17.8481 3.55016C17.2792 3.32966 16.6304 3.17937 15.6804 3.1359C14.7286 3.09262 14.4256 3.08203 12.0014 3.08203H12.0042ZM11.2037 4.68891C11.4413 4.68854 11.7064 4.68891 12.0042 4.68891C14.3867 4.68891 14.6691 4.69745 15.61 4.74018C16.48 4.77993 16.9522 4.9252 17.2668 5.04724C17.6832 5.20886 17.9801 5.40206 18.2922 5.71414C18.6045 6.02624 18.7979 6.32346 18.96 6.73957C19.0821 7.05351 19.2277 7.52536 19.2673 8.39475C19.31 9.33472 19.3193 9.61708 19.3193 11.9967C19.3193 14.3764 19.31 14.6588 19.2673 15.5987C19.2275 16.4681 19.0821 16.94 18.96 17.2539C18.7982 17.67 18.6045 17.9663 18.2922 18.2782C17.9799 18.5903 17.6834 18.7835 17.2668 18.9451C16.9526 19.0677 16.48 19.2126 15.61 19.2524C14.6693 19.2951 14.3867 19.3044 12.0042 19.3044C9.62147 19.3044 9.33909 19.2951 8.39841 19.2524C7.52839 19.2123 7.05619 19.067 6.74145 18.9449C6.32503 18.7833 6.02757 18.5901 5.71526 18.278C5.40295 17.966 5.20961 17.6695 5.04749 17.2532C4.92536 16.9392 4.7798 16.4674 4.7402 15.598C4.69744 14.658 4.68889 14.3757 4.68889 11.9945C4.68889 9.61337 4.69744 9.33249 4.7402 8.39252C4.77999 7.52313 4.92536 7.05129 5.04749 6.73697C5.20923 6.32086 5.40295 6.02363 5.71526 5.71155C6.02757 5.39946 6.32503 5.20627 6.74145 5.04428C7.056 4.92167 7.52839 4.77678 8.39841 4.73683C9.22159 4.69968 9.5406 4.68854 11.2037 4.68667L11.2037 4.68891ZM16.7674 6.16945C16.1763 6.16945 15.6966 6.64818 15.6966 7.23909C15.6966 7.82983 16.1763 8.30911 16.7674 8.30911C17.3586 8.30911 17.8382 7.82983 17.8382 7.23909C17.8382 6.64836 17.3586 6.16909 16.7674 6.16909L16.7674 6.16945ZM12.0042 7.41966C9.47349 7.41966 7.42168 9.46995 7.42168 11.9988C7.42168 14.5276 9.47349 16.577 12.0042 16.577C14.5349 16.577 16.586 14.5276 16.586 11.9988C16.586 9.46995 14.5347 7.41966 12.004 7.41966H12.0042ZM12.0042 9.02653C13.6468 9.02653 14.9787 10.3572 14.9787 11.9988C14.9787 13.6402 13.6468 14.971 12.0042 14.971C10.3614 14.971 9.02974 13.6402 9.02974 11.9988C9.02974 10.3572 10.3614 9.02653 12.0042 9.02653Z" fill="white"/>
</g>
<defs>
<clipPath id="clip0_92_4096">
<rect width="24" height="24" fill="white"/>
</clipPath>
</defs>
</svg>
