<svg width="24" height="24" viewBox="0 0 24 24" fill="none" xmlns="http://www.w3.org/2000/svg">
<g clip-path="url(#clip0_92_4122)">
<path d="M12.0039 0C6.99403 0 5.52882 0.00517032 5.24402 0.0287999C4.21591 0.114284 3.57615 0.276208 2.87917 0.623305C2.34205 0.890106 1.91843 1.19936 1.50035 1.63287C0.73896 2.42346 0.277507 3.3961 0.110458 4.55226C0.0292467 5.11354 0.00561688 5.228 0.000818394 8.09496C-0.00102299 9.05061 0.000818394 10.3083 0.000818394 11.9953C0.000818394 17.0025 0.00635159 18.4666 0.0303531 18.7509C0.113415 19.7516 0.270305 20.3812 0.602552 21.0699C1.23751 22.3882 2.4502 23.3778 3.87886 23.7471C4.37354 23.8745 4.9199 23.9446 5.6213 23.9778C5.91848 23.9908 8.94744 24 11.9783 24C15.0091 24 18.0399 23.9963 18.3297 23.9815C19.1418 23.9433 19.6134 23.88 20.1349 23.7452C21.5728 23.3741 22.7633 22.3992 23.4112 21.0625C23.737 20.3905 23.9022 19.7369 23.9769 18.7884C23.9932 18.5816 24 15.2847 24 11.9922C24 8.69907 23.9926 5.40821 23.9764 5.20142C23.9007 4.23765 23.7355 3.5896 23.3992 2.90461C23.1232 2.34388 22.8168 1.92514 22.372 1.49699C21.5781 0.738523 20.6072 0.276943 19.4503 0.110039C18.8897 0.0289815 18.778 0.00497991 15.9096 0H12.0039Z" fill="#1A1A18"/>
<path d="M5.37637 11.3431C8.79957 9.75562 11.0817 8.70894 12.2228 8.20328C15.4845 6.75935 16.1615 6.50857 16.6036 6.50007C16.7008 6.49841 16.9173 6.524 17.0585 6.64558C17.1759 6.74812 17.209 6.88679 17.2255 6.98415C17.2401 7.08142 17.2603 7.3031 17.2438 7.47614C17.0677 9.45269 16.3027 14.2491 15.9138 16.463C15.7505 17.3997 15.4258 17.7138 15.1121 17.7444C14.4297 17.8112 13.9123 17.2647 13.2519 16.804C12.2191 16.0827 11.6357 15.6339 10.6322 14.9302C9.47283 14.1169 10.225 13.6698 10.8854 12.9394C11.0578 12.7482 14.0628 9.83901 14.1196 9.57515C14.127 9.54214 14.1343 9.4191 14.0646 9.35425C13.9967 9.28921 13.8958 9.31148 13.8225 9.32906C13.7179 9.35406 12.0687 10.5158 8.86928 12.814C8.40148 13.1566 7.9777 13.3236 7.59613 13.3148C7.17786 13.3052 6.37067 13.0624 5.77079 12.855C5.03698 12.6005 4.45178 12.4659 4.50314 12.0337C4.52882 11.8087 4.82051 11.5785 5.37637 11.3431Z" fill="white"/>
</g>
<defs>
<clipPath id="clip0_92_4122">
<rect width="24" height="24" fill="white"/>
</clipPath>
</defs>
</svg>
