<svg width="32" height="32" viewBox="0 0 32 32" fill="none" xmlns="http://www.w3.org/2000/svg">
<g clip-path="url(#clip0_72_7030)">
<path d="M24.0102 0H7.98979C3.57715 0 0 3.57715 0 7.98979V24.0102C0 28.4228 3.57715 32 7.98979 32H24.0102C28.4228 32 32 28.4228 32 24.0102V7.98979C32 3.57715 28.4228 0 24.0102 0Z" fill="url(#paint0_linear_72_7030)"/>
<path d="M24.0102 0H7.98979C3.57715 0 0 3.57715 0 7.98979V24.0102C0 28.4228 3.57715 32 7.98979 32H24.0102C28.4228 32 32 28.4228 32 24.0102V7.98979C32 3.57715 28.4228 0 24.0102 0Z" fill="url(#paint1_radial_72_7030)"/>
<path fill-rule="evenodd" clip-rule="evenodd" d="M16.2631 28.1067C13.8629 28.1067 12.7475 27.7563 10.8086 26.3547C9.58224 27.9315 5.69868 29.1638 5.52931 27.0555C5.52931 25.4729 5.17891 24.1356 4.78179 22.6756C4.30876 20.8769 3.77148 18.8738 3.77148 15.9713C3.77148 9.03929 9.45961 3.82422 16.1989 3.82422C22.944 3.82422 28.2292 9.29625 28.2292 16.0355C28.2518 22.6706 22.8982 28.0713 16.2631 28.1067ZM16.3624 9.81599C13.0804 9.64665 10.5225 11.9184 9.956 15.4808C9.4888 18.4299 10.3181 22.0215 11.0247 22.2084C11.3634 22.2901 12.2161 21.601 12.7475 21.0696C13.6262 21.6767 14.6496 22.0413 15.7142 22.1266C19.1149 22.2902 22.0208 19.7012 22.2491 16.3042C22.382 12.9 19.7636 10.0167 16.3624 9.82185V9.81599Z" fill="white"/>
</g>
<defs>
<linearGradient id="paint0_linear_72_7030" x1="3.7711" y1="24.3372" x2="32" y2="16" gradientUnits="userSpaceOnUse">
<stop stop-color="#44CCFF"/>
<stop offset="0.662" stop-color="#5533EE"/>
<stop offset="1" stop-color="#9933DD"/>
</linearGradient>
<radialGradient id="paint1_radial_72_7030" cx="0" cy="0" r="1" gradientUnits="userSpaceOnUse" gradientTransform="translate(-0.761305 -14.0539) rotate(51.356) scale(38.8325 16)">
<stop stop-color="#0000FF"/>
<stop offset="1" stop-opacity="0"/>
</radialGradient>
<clipPath id="clip0_72_7030">
<rect width="32" height="32" fill="white"/>
</clipPath>
</defs>
</svg>
