<svg width="24" height="24" viewBox="0 0 24 24" fill="none" xmlns="http://www.w3.org/2000/svg">
<path fill-rule="evenodd" clip-rule="evenodd" d="M11.293 5.29289C11.6835 4.90237 12.3165 4.90237 12.707 5.29289C13.0975 5.68342 13.0975 6.31645 12.707 6.70696L8.41406 10.9999H18.5C19.0523 10.9999 19.5 11.4476 19.5 11.9999C19.4999 12.5521 19.0522 12.9999 18.5 12.9999H8.41406L12.707 17.2929C13.0975 17.6834 13.0975 18.3165 12.707 18.707C12.3165 19.0974 11.6835 19.0974 11.293 18.707L5.29297 12.707C5.26553 12.6795 5.24135 12.6497 5.21777 12.62C5.18159 12.5745 5.14899 12.5261 5.12109 12.4745C5.11361 12.4607 5.1064 12.4467 5.09961 12.4325C5.07786 12.3874 5.05879 12.3406 5.04395 12.2919C5.03126 12.2503 5.02275 12.2077 5.01562 12.165C5.00668 12.1112 5.00001 12.0562 5 11.9999C5 11.9202 5.01069 11.8428 5.02832 11.7685C5.03319 11.7479 5.03777 11.7272 5.04395 11.707C5.05882 11.6583 5.07783 11.6115 5.09961 11.5663C5.11876 11.5266 5.14032 11.4876 5.16504 11.4501C5.2024 11.3935 5.24519 11.3407 5.29297 11.2929L11.293 5.29289Z" fill="#7E84A3"/>
</svg>
