<svg width="24" height="24" viewBox="0 0 24 24" fill="none" xmlns="http://www.w3.org/2000/svg">
<path d="M21 20C21.5523 20 22 20.4478 22 21C22 21.5523 21.5523 22 21 22H3C2.44773 22 2.00003 21.5523 2 21C2 20.4478 2.44772 20 3 20H21ZM14.3428 2.29301C14.7333 1.9025 15.3673 1.90249 15.7578 2.29301L20.707 7.24223C21.0975 7.63276 21.0975 8.26677 20.707 8.65727L12.2725 17.0918C11.8973 17.467 11.3878 17.6778 10.8574 17.6778H6.32227C5.77005 17.6778 5.32238 17.23 5.32227 16.6778V12.1426C5.32227 11.6123 5.53308 11.1027 5.9082 10.7276L14.3428 2.29301ZM7.32227 12.1426V15.6778H10.8574L15.7568 10.7774L12.2217 7.24223L7.32227 12.1426ZM13.6357 5.82817L17.1709 9.36333L18.585 7.94926L15.0498 4.41411L13.6357 5.82817Z" fill="#303030"/>
</svg>
