<svg width="24" height="24" viewBox="0 0 24 24" fill="none" xmlns="http://www.w3.org/2000/svg">
<path d="M15.5996 15C16.1519 15 16.5996 15.4477 16.5996 16V17H20C20.5523 17 21 17.4477 21 18C21 18.5523 20.5523 19 20 19H16.5996V20C16.5996 20.5523 16.1519 21 15.5996 21C15.0475 20.9998 14.5996 20.5522 14.5996 20V16C14.5996 15.4478 15.0475 15.0002 15.5996 15ZM12 17C12.5523 17 13 17.4477 13 18C13 18.5523 12.5523 19 12 19H4C3.44772 19 3 18.5523 3 18C3 17.4477 3.44772 17 4 17H12ZM8.5 9C9.05228 9 9.5 9.44772 9.5 10V14C9.5 14.5523 9.05228 15 8.5 15C7.94772 15 7.5 14.5523 7.5 14V13H4C3.44772 13 3 12.5523 3 12C3 11.4477 3.44772 11 4 11H7.5V10C7.5 9.44772 7.94772 9 8.5 9ZM20 11C20.5523 11 21 11.4477 21 12C21 12.5523 20.5523 13 20 13H12C11.4477 13 11 12.5523 11 12C11 11.4477 11.4477 11 12 11H20ZM13.7998 2.90039C14.3521 2.90039 14.7998 3.34811 14.7998 3.90039V5H20C20.5523 5 21 5.44772 21 6C21 6.55228 20.5523 7 20 7H14.7998V7.5C14.7996 8.0521 14.352 8.5 13.7998 8.5C13.2477 8.49989 12.8 8.05204 12.7998 7.5V3.90039C12.7998 3.34817 13.2476 2.9005 13.7998 2.90039ZM9.90039 5C10.4525 5.0002 10.9004 5.44784 10.9004 6C10.9004 6.55216 10.4525 6.9998 9.90039 7H3.90039C3.34811 7 2.90039 6.55228 2.90039 6C2.90039 5.44772 3.34811 5 3.90039 5H9.90039Z" fill="#303030"/>
</svg>
