<svg width="24" height="24" viewBox="0 0 24 24" fill="none" xmlns="http://www.w3.org/2000/svg">
<path d="M21 12V8C21 6.89543 20.1046 6 19 6H5C3.89543 6 3 6.89543 3 8V14C3 15.1046 3.89543 16 5 16H11" stroke="#FF0000" stroke-width="1.2" stroke-linecap="round" stroke-linejoin="round"/>
<path d="M12 11.0111L12.01 11" stroke="#FF0000" stroke-width="1.2" stroke-linecap="round" stroke-linejoin="round"/>
<path d="M16 11.0111L16.01 11" stroke="#FF0000" stroke-width="1.2" stroke-linecap="round" stroke-linejoin="round"/>
<path d="M8 11.0111L8.01 11" stroke="#FF0000" stroke-width="1.2" stroke-linecap="round" stroke-linejoin="round"/>
<path d="M21.6665 16.6667C21.0477 15.097 19.6346 14 17.9903 14C16.2319 14 14.7378 15.2545 14.1969 17" stroke="#FF0000" stroke-width="1.2" stroke-linecap="round" stroke-linejoin="round"/>
<path d="M14.3337 19.3333C14.9525 20.903 16.3657 22 18.01 22C19.7684 22 21.2624 20.7455 21.8033 19" stroke="#FF0000" stroke-width="1.2" stroke-linecap="round" stroke-linejoin="round"/>
<path d="M19.9952 16.7731H21.4002C21.7316 16.7731 22.0002 16.5044 22.0002 16.1731V14.5508" stroke="#FF0000" stroke-width="1.2" stroke-linecap="round" stroke-linejoin="round"/>
<path d="M16.005 19.2266H14.6001C14.2687 19.2266 14.0001 19.4953 14.0001 19.8266V21.4489" stroke="#FF0000" stroke-width="1.2" stroke-linecap="round" stroke-linejoin="round"/>
</svg>
