<svg width="40" height="40" viewBox="0 0 40 40" fill="none" xmlns="http://www.w3.org/2000/svg">
<circle cx="20.3154" cy="13.0526" r="3.45263" stroke="#303030" stroke-width="1.2"/>
<path d="M17.8345 18.8628H22.7964C23.9724 18.8628 24.9263 19.8167 24.9263 20.9926V25.7895C24.9262 28.3357 22.862 30.3996 20.3159 30.3999C17.7696 30.3999 15.7046 28.3358 15.7046 25.7895V20.9926C15.7046 19.8167 16.6585 18.8628 17.8345 18.8628Z" stroke="#303030" stroke-width="1.2"/>
<circle cx="28.9993" cy="13.6313" r="2.87368" stroke="#303030" stroke-width="1.2"/>
<path d="M31.4033 18.276C32.6546 18.403 33.6309 19.46 33.6309 20.7448V25.2106C33.6309 27.7683 31.5577 29.8421 29 29.8424L28.7617 29.8365C27.6971 29.7827 26.7277 29.3684 25.9717 28.7145C26.1698 28.332 26.3303 27.9273 26.4482 27.5045C27.0764 28.2027 27.9869 28.6422 29 28.6422C30.8949 28.6419 32.4316 27.1056 32.4316 25.2106V20.7448C32.4316 20.0374 31.8577 19.4638 31.1504 19.4635H26.8496C26.771 19.4635 26.6938 19.4714 26.6191 19.485C26.5331 19.0757 26.3612 18.699 26.127 18.3698C26.2775 18.324 26.4345 18.2924 26.5957 18.276L26.8496 18.2633H31.1504L31.4033 18.276Z" fill="#303030"/>
<circle cx="3.47368" cy="3.47368" r="2.87368" transform="matrix(-1 0 0 1 15.1053 10.1576)" stroke="#303030" stroke-width="1.2"/>
<path d="M9.22766 18.276C7.97642 18.403 7.00012 19.46 7.00012 20.7448V25.2106C7.00012 27.7683 9.07331 29.8421 11.631 29.8424L11.8693 29.8365C12.9339 29.7827 13.9033 29.3684 14.6593 28.7145C14.4612 28.332 14.3007 27.9273 14.1827 27.5045C13.5546 28.2027 12.6441 28.6422 11.631 28.6422C9.73605 28.6419 8.19934 27.1056 8.19934 25.2106V20.7448C8.19934 20.0374 8.77328 19.4638 9.48059 19.4635H13.7814C13.86 19.4635 13.9371 19.4714 14.0118 19.485C14.0979 19.0757 14.2697 18.699 14.504 18.3698C14.3535 18.324 14.1965 18.2924 14.0353 18.276L13.7814 18.2633H9.48059L9.22766 18.276Z" fill="#303030"/>
</svg>
