<svg width="24" height="24" viewBox="0 0 24 24" fill="none" xmlns="http://www.w3.org/2000/svg">
<path d="M17.3999 2C19.4432 2.00021 21.1001 3.65687 21.1001 5.7002C21.1 7.74343 19.4431 9.40018 17.3999 9.40039C16.3991 9.40039 15.4918 9.00206 14.8257 8.35645L10.1802 11.0674C10.2576 11.3654 10.3003 11.6778 10.3003 12C10.3003 12.3211 10.2581 12.6326 10.1812 12.9297L14.8296 15.6387C15.4952 14.9957 16.4014 14.5996 17.3999 14.5996C19.443 14.5998 21.0999 16.2567 21.1001 18.2998C21.1 20.343 19.4431 21.9998 17.3999 22C15.3565 22 13.6998 20.3432 13.6997 18.2998C13.6997 17.977 13.7402 17.6637 13.8179 17.3652L9.17139 14.6582C8.50557 15.3025 7.59963 15.7 6.6001 15.7002C4.55671 15.7002 2.90001 14.0434 2.8999 12C2.90001 9.95664 4.55671 8.2998 6.6001 8.2998C7.59956 8.29996 8.50559 8.6976 9.17139 9.3418L13.8169 6.63086C13.7399 6.33355 13.6997 6.02157 13.6997 5.7002C13.6997 3.65674 15.3564 2 17.3999 2ZM17.3999 16.5996C16.8131 16.5996 16.2953 16.8973 15.9897 17.3496C15.9753 17.3818 15.9591 17.4141 15.9409 17.4453C15.924 17.4743 15.9055 17.5017 15.8862 17.5283C15.7678 17.76 15.6998 18.0218 15.6997 18.2998C15.6998 19.2386 16.4611 20 17.3999 20C18.3385 19.9998 19.1 19.2385 19.1001 18.2998C19.0999 17.3612 18.3385 16.5998 17.3999 16.5996ZM6.6001 10.2998C5.66128 10.2998 4.90001 11.0612 4.8999 12C4.90001 12.9388 5.66128 13.7002 6.6001 13.7002C7.2222 13.7 7.7638 13.3641 8.06006 12.8652C8.06193 12.8619 8.06401 12.8588 8.06592 12.8555C8.06976 12.8489 8.07465 12.8424 8.07861 12.8359C8.21855 12.5889 8.30026 12.3041 8.30029 12C8.30019 11.0614 7.53865 10.3001 6.6001 10.2998ZM17.3999 4C16.461 4 15.6997 4.76131 15.6997 5.7002C15.6997 6.0063 15.7817 6.29287 15.9233 6.54102C15.9261 6.54564 15.9294 6.55 15.9321 6.55469C15.9331 6.55642 15.9341 6.55881 15.9351 6.56055C16.2306 7.06255 16.7753 7.40039 17.3999 7.40039C18.3385 7.40018 19.1 6.63886 19.1001 5.7002C19.1001 4.76144 18.3386 4.00021 17.3999 4Z" fill="#303030"/>
</svg>
