<svg width="24" height="24" viewBox="0 0 24 24" fill="none" xmlns="http://www.w3.org/2000/svg">
<path fill-rule="evenodd" clip-rule="evenodd" d="M7.99992 4C8.55217 4.00004 8.99992 4.44774 8.99992 5V16.5859L11.2929 14.293C11.6834 13.9025 12.3164 13.9025 12.707 14.293C13.0974 14.6835 13.0974 15.3165 12.707 15.707L8.70696 19.707C8.66043 19.7536 8.60857 19.7944 8.55364 19.8311C8.51451 19.8572 8.47421 19.8804 8.43254 19.9004C8.38705 19.9223 8.33994 19.9412 8.29094 19.9561C8.2742 19.9611 8.25709 19.9646 8.24016 19.9688C8.22456 19.9726 8.20916 19.9774 8.19328 19.9805C8.18619 19.9819 8.17892 19.9822 8.1718 19.9834C8.11586 19.9931 8.05864 20 7.99992 20L7.89739 19.9951C7.8759 19.9929 7.85497 19.9879 7.83391 19.9844C7.82351 19.9826 7.81301 19.9816 7.80266 19.9795C7.79116 19.9772 7.77984 19.9744 7.76848 19.9717C7.74791 19.9668 7.72724 19.9623 7.70696 19.9561C7.6583 19.9412 7.61152 19.9222 7.56633 19.9004C7.52654 19.8812 7.48761 19.8597 7.45012 19.835C7.39346 19.7976 7.34071 19.7548 7.29289 19.707L3.29289 15.707C2.90237 15.3165 2.90237 14.6835 3.29289 14.293C3.68342 13.9025 4.31644 13.9025 4.70696 14.293L6.99992 16.5859V5C6.99992 4.44772 7.44764 4 7.99992 4ZM17.0204 4.00098C17.038 4.00133 17.0556 4.00165 17.0732 4.00293C17.0909 4.00421 17.1085 4.00562 17.1259 4.00781C17.1377 4.0093 17.1493 4.01177 17.1611 4.01367C17.1798 4.01671 17.1983 4.02034 17.2167 4.02441C17.2278 4.02687 17.2389 4.02939 17.2499 4.03223C17.3172 4.04956 17.3813 4.07429 17.4423 4.10449C17.5376 4.15158 17.6276 4.21362 17.707 4.29297L21.707 8.29297C22.0974 8.68348 22.0974 9.31652 21.707 9.70703C21.3164 10.0975 20.6834 10.0975 20.2929 9.70703L17.9999 7.41406V19C17.9999 19.5523 17.5522 20 16.9999 20C16.4476 20 15.9999 19.5523 15.9999 19V7.41406L13.707 9.70703C13.3164 10.0975 12.6834 10.0975 12.2929 9.70703C11.9024 9.31651 11.9024 8.68349 12.2929 8.29297L16.2929 4.29297C16.3501 4.2358 16.4147 4.18656 16.4843 4.14453C16.5042 4.13248 16.5243 4.12088 16.5448 4.11035C16.6072 4.07841 16.673 4.05256 16.7421 4.03418C16.7587 4.02977 16.7752 4.02503 16.7919 4.02148C16.8029 4.01917 16.814 4.01758 16.8251 4.01562C16.8426 4.01252 16.8602 4.00998 16.8779 4.00781C16.8956 4.00565 16.9135 4.00415 16.9316 4.00293C16.9475 4.00184 16.9635 4.00131 16.9794 4.00098C16.9862 4.00084 16.9931 4 16.9999 4C17.0068 4 17.0136 4.00084 17.0204 4.00098Z" fill="#303030"/>
</svg>
