<svg width="155" height="36" viewBox="0 0 155 36" fill="none" xmlns="http://www.w3.org/2000/svg">
<path fill-rule="evenodd" clip-rule="evenodd" d="M2.79695 0H32.4504C33.1915 0.00231831 33.9016 0.304033 34.4256 0.839261C34.9496 1.37449 35.2451 2.09975 35.2473 2.85668V33.1433C35.2451 33.9003 34.9496 34.6255 34.4256 35.1608C33.9016 35.6959 33.1915 35.9977 32.4504 36H2.79695C2.05585 35.9977 1.34576 35.6959 0.821714 35.1608C0.297676 34.6255 0.00226984 33.9003 0 33.1433V2.85668C0.00226984 2.09975 0.297676 1.37449 0.821714 0.839261C1.34576 0.304033 2.05585 0.00231831 2.79695 0Z" fill="#FFDD00"/>
<path d="M146.821 18.2945C146.699 18.2965 146.578 18.2734 146.464 18.2266C146.351 18.1797 146.248 18.1102 146.161 18.0219C146.074 17.9337 146.006 17.8286 145.959 17.7129C145.913 17.5972 145.89 17.4731 145.892 17.3482V6.37852C145.887 6.25178 145.909 6.12552 145.956 6.00793C146.002 5.89032 146.072 5.784 146.162 5.69584C146.249 5.60931 146.352 5.54141 146.465 5.49614C146.579 5.45086 146.699 5.4291 146.821 5.43215H154.013C154.134 5.42699 154.254 5.44636 154.367 5.48911C154.481 5.53186 154.584 5.59715 154.673 5.68119C154.757 5.76341 154.823 5.8634 154.865 5.97419C154.909 6.08913 154.93 6.21143 154.928 6.33457C154.933 6.45168 154.911 6.56833 154.868 6.67654C154.823 6.78475 154.757 6.88197 154.673 6.96157C154.59 7.04046 154.493 7.10127 154.386 7.1403C154.269 7.18071 154.146 7.2005 154.022 7.19889H147.736V10.9228H152.2C152.324 10.9215 152.448 10.9423 152.565 10.9844C152.672 11.0259 152.769 11.0898 152.852 11.1719C152.935 11.2542 153.001 11.3542 153.043 11.4648C153.128 11.6893 153.128 11.9377 153.043 12.1622C153.001 12.2729 152.935 12.3728 152.852 12.4552C152.763 12.5392 152.659 12.6045 152.546 12.6473C152.433 12.69 152.312 12.7094 152.192 12.7042H147.736V16.5307H153.999C154.24 16.5198 154.475 16.6049 154.656 16.768C154.741 16.8496 154.806 16.9498 154.848 17.061C154.891 17.1718 154.913 17.2904 154.911 17.4097C154.916 17.5303 154.895 17.6506 154.851 17.7626C154.807 17.8747 154.741 17.976 154.656 18.0601C154.574 18.1423 154.476 18.2062 154.369 18.2477C154.252 18.2897 154.128 18.3105 154.004 18.3092L146.821 18.2945Z" fill="#303030"/>
<path d="M128.057 18.2946C127.935 18.2966 127.813 18.2734 127.7 18.2266C127.586 18.1798 127.483 18.1102 127.397 18.0219C127.31 17.9337 127.241 17.8286 127.196 17.7129C127.149 17.5972 127.127 17.4732 127.128 17.3482V6.37858C127.124 6.25185 127.145 6.12559 127.191 6.00798C127.238 5.89038 127.308 5.78406 127.397 5.6959C127.485 5.60937 127.588 5.54147 127.701 5.49619C127.815 5.45092 127.936 5.42917 128.057 5.43221C128.227 5.42887 128.394 5.47472 128.539 5.56442C128.684 5.65414 128.802 5.78405 128.878 5.93908L133.511 15.3881L138.026 5.93908C138.101 5.78428 138.218 5.65448 138.363 5.56476C138.507 5.47504 138.674 5.42908 138.843 5.43221C138.965 5.42917 139.086 5.45092 139.199 5.49619C139.312 5.54147 139.416 5.60937 139.503 5.6959C139.592 5.78406 139.663 5.89038 139.709 6.00798C139.756 6.12559 139.778 6.25185 139.773 6.37858V17.3482C139.774 17.4748 139.749 17.6003 139.7 17.7164C139.651 17.8326 139.577 17.9367 139.486 18.0221C139.311 18.1978 139.075 18.2963 138.829 18.2963C138.583 18.2963 138.347 18.1978 138.172 18.0221C138.084 17.9346 138.015 17.8297 137.969 17.7138C137.922 17.5979 137.9 17.4734 137.902 17.3482V9.73042L134.254 17.3395C134.166 17.4819 134.048 17.6014 133.907 17.6881C133.769 17.7686 133.612 17.8101 133.453 17.8082C133.274 17.8129 133.097 17.764 132.945 17.6676C132.798 17.5639 132.681 17.421 132.607 17.2544L128.987 9.88278V17.3482C128.988 17.4732 128.965 17.5972 128.919 17.7129C128.873 17.8286 128.804 17.9337 128.718 18.0219C128.631 18.1102 128.528 18.1798 128.414 18.2266C128.301 18.2734 128.18 18.2966 128.057 18.2946Z" fill="#303030"/>
<path d="M120.083 18.2945C119.96 18.2964 119.839 18.2733 119.725 18.2265C119.612 18.1797 119.509 18.1101 119.422 18.0218C119.335 17.9336 119.267 17.8285 119.221 17.7128C119.175 17.5971 119.151 17.4731 119.153 17.3481V6.37847C119.149 6.25174 119.17 6.12548 119.217 6.00788C119.264 5.89028 119.333 5.78396 119.423 5.6958C119.604 5.52573 119.841 5.43134 120.087 5.43134C120.333 5.43134 120.57 5.52573 120.751 5.6958C120.838 5.78491 120.905 5.89119 120.95 6.00808C120.995 6.12499 121.016 6.25004 121.012 6.37554V17.3481C121.015 17.4719 120.993 17.595 120.949 17.7102C120.905 17.8254 120.838 17.9305 120.754 18.019C120.667 18.1103 120.562 18.182 120.446 18.2294C120.331 18.2768 120.207 18.299 120.083 18.2945Z" fill="#303030"/>
<path d="M109.274 18.2944C109.152 18.2963 109.03 18.2732 108.917 18.2264C108.803 18.1796 108.7 18.11 108.614 18.0217C108.527 17.9335 108.459 17.8284 108.412 17.7127C108.366 17.597 108.343 17.473 108.345 17.348V7.19289H105.011C104.895 7.19429 104.779 7.17342 104.67 7.13137C104.563 7.09036 104.465 7.02644 104.383 6.94385C104.302 6.86077 104.239 6.76084 104.199 6.65086C104.118 6.42679 104.118 6.18053 104.199 5.95646C104.241 5.84962 104.304 5.75267 104.384 5.67155C104.464 5.59042 104.559 5.52685 104.664 5.48475C104.773 5.44262 104.889 5.42175 105.005 5.42322H113.517C113.631 5.4196 113.745 5.43982 113.852 5.48264C113.958 5.52546 114.055 5.58997 114.136 5.67227C114.215 5.75602 114.276 5.85587 114.314 5.96525C114.395 6.18932 114.395 6.43558 114.314 6.65964C114.272 6.76657 114.21 6.86361 114.13 6.94476C114.05 7.02589 113.955 7.08941 113.849 7.13137C113.74 7.17349 113.625 7.19436 113.508 7.19289H110.203V17.348C110.205 17.473 110.182 17.597 110.136 17.7127C110.089 17.8284 110.021 17.9335 109.934 18.0217C109.847 18.11 109.745 18.1796 109.631 18.2264C109.518 18.2732 109.396 18.2963 109.274 18.2944Z" fill="#303030"/>
<path d="M94.5054 18.2943C93.6123 18.3048 92.7247 18.1397 91.8922 17.808C91.1259 17.501 90.4309 17.0351 89.85 16.4397C89.2733 15.8442 88.8222 15.1355 88.5219 14.3565C88.3632 13.9467 88.2448 13.5217 88.1687 13.0878C88.0115 12.1719 88.0115 11.235 88.1687 10.319C88.2448 9.88704 88.3625 9.46397 88.5219 9.05623C88.8215 8.27777 89.2726 7.56921 89.8472 6.97307C90.132 6.67939 90.4464 6.41718 90.7847 6.19079C91.133 5.95837 91.5031 5.76206 91.8894 5.6048C92.2926 5.44114 92.7107 5.31941 93.1371 5.24149C93.5883 5.15973 94.0451 5.11952 94.5026 5.12136C95.3944 5.11004 96.2798 5.2752 97.1102 5.60773C97.4944 5.76576 97.8624 5.96204 98.2092 6.19372C98.5483 6.42087 98.8634 6.68301 99.1503 6.97601C99.7291 7.57029 100.183 8.27921 100.484 9.05918C100.643 9.46692 100.761 9.88999 100.837 10.322C100.916 10.7784 100.956 11.2413 100.954 11.7049C100.966 12.6109 100.808 13.5109 100.49 14.3565C100.192 15.1401 99.7376 15.8521 99.156 16.4477C98.5751 17.0432 97.8793 17.5093 97.113 17.8168C96.7112 17.9758 96.2939 18.0926 95.8681 18.1654C95.4176 18.2474 94.9608 18.2876 94.5026 18.2855L94.5054 18.2943ZM94.5026 16.554C95.1491 16.566 95.7906 16.4423 96.3876 16.1906C96.6668 16.0701 96.934 15.9219 97.1849 15.7482C97.431 15.5768 97.6601 15.3805 97.868 15.1622C98.0668 14.9417 98.2438 14.7012 98.3953 14.4444C98.5589 14.1824 98.6964 13.9047 98.8056 13.6152C98.9191 13.3156 99.003 13.0055 99.058 12.6893C99.1708 12.0282 99.1708 11.3522 99.058 10.6911C99.0037 10.3749 98.9191 10.0649 98.8056 9.76529C98.6956 9.47678 98.5589 9.20009 98.3953 8.93909C98.0746 8.42465 97.6537 7.98292 97.1589 7.64107C96.9164 7.46935 96.6583 7.32218 96.3876 7.20158C95.1843 6.71562 93.8442 6.71562 92.6409 7.20158C92.3624 7.31952 92.0959 7.46575 91.8464 7.63819C91.6011 7.80876 91.3741 8.0051 91.1696 8.22413C90.9631 8.44315 90.7784 8.68262 90.6184 8.93909C90.4555 9.20246 90.3174 9.48103 90.2053 9.77119C89.7456 11.0105 89.7456 12.3789 90.2053 13.6182C90.3174 13.9082 90.4555 14.1869 90.6184 14.4503C90.7784 14.7067 90.9631 14.9462 91.1696 15.1651C91.3748 15.3837 91.6018 15.58 91.8464 15.7512C92.0966 15.925 92.3624 16.0732 92.6409 16.1936C93.2316 16.4446 93.8661 16.5701 94.5054 16.5627L94.5026 16.554Z" fill="#303030"/>
<path d="M79.576 18.2945C79.4541 18.2964 79.3321 18.2733 79.2193 18.2265C79.1058 18.1796 79.0022 18.1101 78.9155 18.0218C78.8288 17.9336 78.7604 17.8285 78.7146 17.7128C78.6681 17.5971 78.6455 17.473 78.6469 17.3481V7.19297H75.3104C75.1941 7.19436 75.0785 7.1735 74.9692 7.13144C74.8642 7.08918 74.769 7.02556 74.6893 6.94446C74.6097 6.86336 74.5462 6.76647 74.5046 6.65972C74.4236 6.43565 74.4236 6.18939 74.5046 5.96533C74.5462 5.85857 74.6097 5.76169 74.6893 5.68059C74.769 5.59949 74.8642 5.53586 74.9692 5.49361C75.0785 5.45149 75.1941 5.43061 75.3104 5.43208H83.8219C83.9361 5.42847 84.0503 5.44869 84.1568 5.4915C84.2632 5.53432 84.3605 5.59883 84.4416 5.68112C84.5205 5.76487 84.5812 5.86473 84.6192 5.97412C84.7003 6.19818 84.7003 6.44445 84.6192 6.66851C84.5776 6.77544 84.5149 6.87248 84.4352 6.95362C84.3549 7.03476 84.2597 7.09828 84.1547 7.14023C84.0454 7.18235 83.9298 7.20324 83.8135 7.20173H80.5059V17.3481C80.5073 17.473 80.484 17.5971 80.4382 17.7128C80.3917 17.8285 80.3233 17.9336 80.2366 18.0218C80.1499 18.1101 80.0469 18.1796 79.9334 18.2265C79.8199 18.2733 79.6987 18.2964 79.576 18.2945Z" fill="#303030"/>
<path d="M64.5195 18.2947C64.0291 18.2969 63.5399 18.2479 63.0594 18.1482C62.6143 18.0552 62.1818 17.9076 61.7713 17.7087C61.3857 17.519 61.026 17.2786 60.7013 16.9938C60.3897 16.724 60.1173 16.4103 59.8923 16.0621C59.6676 15.7176 59.4954 15.3402 59.3817 14.9428C59.2668 14.5303 59.2099 14.1032 59.2125 13.6742V6.11791C59.2081 5.99118 59.2299 5.86492 59.2763 5.74732C59.3227 5.62972 59.3929 5.5234 59.4821 5.43524C59.6632 5.26517 59.9002 5.17078 60.1462 5.17078C60.3922 5.17078 60.6293 5.26517 60.8103 5.43524C60.8969 5.52435 60.9648 5.63063 61.0097 5.74752C61.0546 5.86443 61.0756 5.98948 61.0713 6.11498V13.6859C61.0623 14.2162 61.2147 14.7362 61.5074 15.1743C61.6533 15.394 61.8291 15.5912 62.0295 15.7603C62.476 16.1222 63.0015 16.3684 63.5613 16.4781C63.876 16.5419 64.1959 16.5733 64.5166 16.5719C64.8269 16.5733 65.1364 16.5419 65.4403 16.4781C65.7191 16.4192 65.9899 16.3258 66.2464 16.1998C66.4858 16.083 66.7095 15.9353 66.912 15.7603C67.1055 15.5901 67.2745 15.3928 67.414 15.1743C67.5535 14.9607 67.6599 14.7265 67.7296 14.4799C67.7997 14.2234 67.8345 13.9581 67.8328 13.6917V6.11791C67.8285 5.99118 67.8502 5.86492 67.8966 5.74732C67.9431 5.62972 68.0132 5.5234 68.1025 5.43524C68.1897 5.3487 68.2931 5.28081 68.4064 5.23553C68.5197 5.19025 68.6406 5.1685 68.7622 5.17155C68.8848 5.16641 69.0071 5.18747 69.1212 5.23339C69.2352 5.2793 69.3387 5.34905 69.4249 5.43817C69.5067 5.52183 69.5711 5.62149 69.6142 5.73116C69.6573 5.85125 69.6787 5.97831 69.6774 6.10619V13.6859C69.6794 14.1146 69.6234 14.5416 69.511 14.9546C69.4014 15.3518 69.2341 15.7301 69.0147 16.0767C68.7968 16.4182 68.5332 16.7268 68.2315 16.9938C67.9159 17.2727 67.5658 17.5081 67.1902 17.6941C66.7916 17.8925 66.3706 18.0402 65.9366 18.1336C65.4706 18.2332 64.9956 18.2823 64.5195 18.28" fill="#303030"/>
<path d="M44.9781 18.2945C44.8239 18.2967 44.6718 18.2583 44.5363 18.1831C44.4016 18.1042 44.2889 17.9911 44.2093 17.855C44.124 17.7206 44.0737 17.5663 44.063 17.4067C44.0559 17.2442 44.0874 17.0824 44.1548 16.935L48.6241 6.06202C48.6962 5.87574 48.8173 5.71348 48.9741 5.59323C49.1279 5.48385 49.3117 5.42739 49.4991 5.43209C49.691 5.4261 49.8798 5.48253 50.0384 5.59323C50.1931 5.71163 50.3091 5.87505 50.3711 6.06202L54.8578 16.9672C54.9189 17.1174 54.9463 17.2795 54.938 17.4419C54.9259 17.5958 54.8756 17.744 54.7918 17.8726C54.7114 18.0037 54.5986 18.1108 54.4647 18.1831C54.3249 18.2538 54.1704 18.289 54.0144 18.2857C53.834 18.2847 53.6578 18.2308 53.5066 18.1304C53.3471 18.0296 53.2242 17.8784 53.1566 17.6997L52.2961 15.4963H46.7308L45.8444 17.7026C45.8063 17.7939 45.7551 17.8788 45.6923 17.9546C45.631 18.0277 45.5583 18.0901 45.4772 18.1392C45.4017 18.1855 45.3207 18.2219 45.2362 18.2476C45.1552 18.2723 45.0712 18.2851 44.9867 18.2857L44.9781 18.2945ZM51.662 13.8907L49.5335 8.50853L47.3734 13.8907H51.662Z" fill="#303030"/>
<path d="M154.294 28.8655V28.0949H153.789C153.525 28.0949 153.393 28.2239 153.393 28.4817C153.393 28.7395 153.539 28.8684 153.832 28.8684L154.294 28.8655ZM153.631 27.594H154.925V30.5649H154.291V29.3284H154.184C154.081 29.3231 153.979 29.3564 153.898 29.4222C153.806 29.5114 153.732 29.6179 153.68 29.7357L153.267 30.5649H152.532L152.98 29.7064C153.048 29.5291 153.169 29.3784 153.327 29.2757C153.241 29.2668 153.157 29.2379 153.083 29.1913C153.009 29.1445 152.946 29.0813 152.899 29.0062C152.789 28.8321 152.735 28.6272 152.744 28.4202C152.735 28.305 152.749 28.1891 152.786 28.0797C152.823 27.9704 152.88 27.8699 152.956 27.7844C153.15 27.6369 153.391 27.5699 153.631 27.5968V27.594ZM147.409 30.5649V27.5968H148.023V29.4603L148.986 27.5968H149.612V30.5678H149.007V28.6634L148.023 30.5678L147.409 30.5649ZM141.99 30.5649V27.5968H142.624V28.678H143.524V27.5968H144.159V30.5678H143.524V29.2991H142.624V30.5532L141.99 30.5649ZM138.148 29.135C138.026 29.1819 137.9 29.2211 137.773 29.2523C137.633 29.2778 137.501 29.3371 137.388 29.4251C137.357 29.4582 137.333 29.4973 137.318 29.5401C137.302 29.5829 137.295 29.6285 137.297 29.6742C137.293 29.7812 137.329 29.8859 137.397 29.9671C137.428 30.0046 137.467 30.0345 137.51 30.0547C137.554 30.075 137.601 30.0851 137.649 30.0844C137.746 30.0825 137.84 30.0497 137.916 29.9906C137.997 29.9362 138.061 29.8588 138.1 29.7679C138.142 29.6156 138.16 29.4572 138.152 29.2991L138.148 29.135ZM137.308 28.4993L136.734 28.3791C136.774 28.1288 136.894 27.8989 137.076 27.7258C137.275 27.5804 137.517 27.51 137.761 27.5266C137.97 27.515 138.179 27.5541 138.37 27.6408C138.495 27.71 138.596 27.819 138.657 27.9514C138.731 28.1827 138.761 28.4263 138.745 28.6692V29.5863C138.741 29.782 138.75 29.9779 138.774 30.1723C138.796 30.3097 138.833 30.4442 138.883 30.5737H138.269L138.186 30.2485C138.091 30.3685 137.972 30.4681 137.839 30.5414C137.718 30.6071 137.583 30.6413 137.446 30.6411C137.339 30.645 137.233 30.6256 137.134 30.5842C137.035 30.5427 136.946 30.4802 136.872 30.4008C136.796 30.3149 136.738 30.2145 136.7 30.1054C136.662 29.9963 136.645 29.8806 136.651 29.765C136.648 29.6133 136.68 29.4628 136.743 29.3255C136.801 29.2066 136.889 29.1055 136.999 29.0325C137.162 28.9365 137.34 28.8691 137.526 28.8333C137.736 28.7912 137.941 28.7263 138.137 28.6399C138.144 28.5313 138.133 28.4222 138.103 28.3176C138.076 28.2623 138.031 28.218 137.976 28.1916C137.895 28.1548 137.807 28.1378 137.718 28.1418C137.623 28.1362 137.529 28.1641 137.452 28.2209C137.379 28.2981 137.329 28.3945 137.308 28.4993ZM132.015 29.2991V30.0668H132.563C132.877 30.0668 133.034 29.9398 133.034 29.6859C133.038 29.631 133.03 29.576 133.009 29.5251C132.989 29.4742 132.957 29.4289 132.916 29.3929C132.757 29.3074 132.576 29.2727 132.397 29.2933L132.015 29.2991ZM132.015 28.092V28.8186H132.48C132.817 28.8186 132.985 28.6927 132.985 28.4407C132.985 28.1887 132.817 28.0725 132.48 28.092H132.015ZM132.933 30.5649H131.384V27.5968H132.819C133.35 27.5968 133.616 27.8557 133.616 28.3733C133.632 28.5153 133.601 28.6586 133.529 28.7807C133.456 28.9028 133.346 28.9966 133.214 29.0472C133.366 29.0944 133.497 29.1937 133.586 29.3281C133.674 29.4627 133.714 29.6242 133.699 29.7855C133.704 29.8891 133.688 29.9926 133.652 30.0897C133.617 30.1868 133.563 30.2757 133.493 30.351C133.42 30.425 133.332 30.4823 133.236 30.5192C133.139 30.556 133.036 30.5716 132.933 30.5649ZM126.43 29.0794C126.414 29.32 126.474 29.5596 126.602 29.7621C126.649 29.8323 126.711 29.8901 126.784 29.9304C126.857 29.9707 126.938 29.9923 127.021 29.9935C127.103 29.9922 127.183 29.9704 127.255 29.93C127.326 29.8897 127.387 29.832 127.431 29.7621C127.558 29.5578 127.617 29.3176 127.6 29.0764C127.616 28.8388 127.556 28.6023 127.428 28.4026C127.382 28.3325 127.321 28.2749 127.248 28.2346C127.176 28.1943 127.095 28.1725 127.012 28.1711C126.931 28.1727 126.851 28.1947 126.779 28.235C126.708 28.2753 126.647 28.3328 126.602 28.4026C126.474 28.6042 126.414 28.8427 126.43 29.0823V29.0794ZM125.785 29.0383C125.781 28.764 125.839 28.4925 125.954 28.2444C126.049 28.0271 126.202 27.8413 126.395 27.7082C126.58 27.5884 126.794 27.5263 127.012 27.5294C127.189 27.5235 127.363 27.5623 127.52 27.6427C127.677 27.723 127.812 27.8422 127.913 27.9895C128.135 28.3018 128.25 28.6792 128.243 29.0648C128.247 29.3508 128.188 29.6341 128.071 29.8939C127.975 30.1189 127.819 30.3117 127.621 30.4506C127.441 30.5737 127.229 30.6391 127.012 30.6381C126.845 30.6413 126.678 30.6059 126.526 30.5343C126.374 30.4628 126.239 30.357 126.132 30.225C125.88 29.8851 125.758 29.4634 125.788 29.0383H125.785ZM120.77 28.2151V27.5968H122.928V28.2151H122.164V30.559H121.531V28.2151H120.77ZM115.578 30.559V27.5968H116.18V29.4603L117.144 27.5968H117.77V30.5678H117.164V28.6634L116.18 30.5678L115.578 30.559ZM110.575 29.9057H111.645V28.2473H110.888C110.87 29.0306 110.768 29.5863 110.581 29.9144L110.575 29.9057ZM112.279 29.9057H112.531V31.3501H112.021V30.5649H110.216V31.3501H109.706V29.9144H109.958C110.207 29.557 110.338 28.7845 110.352 27.5968H112.279V29.9057ZM106.275 28.8186C106.285 28.6364 106.238 28.4559 106.14 28.3029C106.103 28.2494 106.054 28.2056 105.997 28.175C105.94 28.1445 105.877 28.1281 105.813 28.1272C105.746 28.1273 105.681 28.144 105.622 28.1756C105.563 28.2073 105.512 28.2529 105.475 28.3088C105.373 28.46 105.325 28.6417 105.337 28.8245L106.275 28.8186ZM106.24 29.6126L106.868 29.7445C106.809 30.0027 106.672 30.2353 106.476 30.4096C106.291 30.5567 106.061 30.6334 105.827 30.6264C105.673 30.6355 105.519 30.6077 105.377 30.5451C105.235 30.4825 105.109 30.387 105.01 30.266C104.766 29.928 104.646 29.5132 104.671 29.0941C104.65 28.6686 104.771 28.2483 105.013 27.9015C105.101 27.7845 105.216 27.6906 105.347 27.6279C105.478 27.5653 105.622 27.5356 105.767 27.5412C105.921 27.5346 106.075 27.5665 106.214 27.6338C106.353 27.7012 106.474 27.8021 106.567 27.928C106.816 28.3132 106.934 28.7713 106.903 29.2317V29.2991H105.323C105.314 29.4933 105.368 29.6849 105.478 29.8441C105.519 29.9033 105.573 29.9517 105.636 29.9853C105.698 30.0189 105.768 30.0368 105.839 30.0375C106.039 30.0433 106.175 29.9046 106.243 29.6214L106.24 29.6126ZM100.024 29.0267C100.006 29.2854 100.062 29.5439 100.185 29.7709C100.224 29.841 100.28 29.8996 100.348 29.9412C100.416 29.9827 100.493 30.0058 100.572 30.0082C100.646 30.0062 100.718 29.985 100.781 29.9465C100.844 29.908 100.897 29.8536 100.934 29.7884C101.048 29.5682 101.098 29.3192 101.079 29.0706C101.097 28.827 101.044 28.5837 100.928 28.3703C100.891 28.3034 100.836 28.2475 100.771 28.208C100.707 28.1684 100.633 28.1467 100.558 28.1448C100.481 28.1455 100.406 28.166 100.339 28.2044C100.272 28.2428 100.217 28.2979 100.176 28.3645C100.063 28.566 100.011 28.7979 100.03 29.0296L100.024 29.0267ZM99.3989 27.594H99.9868V28.0305C100.061 27.882 100.17 27.7549 100.305 27.6613C100.43 27.5734 100.578 27.5263 100.73 27.5266C100.869 27.53 101.006 27.568 101.128 27.6375C101.25 27.7069 101.354 27.8056 101.43 27.925C101.643 28.2593 101.744 28.6552 101.717 29.053C101.745 29.4649 101.645 29.8753 101.43 30.225C101.354 30.3464 101.251 30.4471 101.128 30.5181C101.005 30.5892 100.868 30.6283 100.727 30.6323C100.604 30.6329 100.482 30.6005 100.374 30.5385C100.239 30.4495 100.124 30.3339 100.033 30.1986V31.69H99.3989V27.594ZM94.4649 30.5649V27.5968H95.0987V28.804C95.1727 28.7999 95.2432 28.7686 95.2968 28.7161C95.3772 28.5857 95.4342 28.4419 95.466 28.2913C95.5132 28.1028 95.5886 27.923 95.6894 27.758C95.7409 27.694 95.8072 27.6441 95.8826 27.613C95.9573 27.5817 96.0391 27.5702 96.1202 27.5793C96.2026 27.5815 96.2851 27.5893 96.3669 27.6027V28.1125H96.3006C96.2224 28.1084 96.1441 28.1245 96.0736 28.1594C96.0222 28.1887 95.9735 28.2883 95.9249 28.4524C95.8896 28.5828 95.8445 28.7102 95.7902 28.8333C95.7444 28.9249 95.6711 28.999 95.5809 29.0443C95.6739 29.0828 95.7578 29.143 95.8241 29.22C95.9453 29.3799 96.0426 29.5578 96.111 29.7474L96.4585 30.5707H95.7874L95.466 29.7093C95.43 29.5894 95.3743 29.4765 95.3024 29.3753C95.2749 29.3493 95.2432 29.3293 95.208 29.3167C95.1727 29.3041 95.1354 29.2991 95.0987 29.3021V30.5737L94.4649 30.5649ZM89.5479 29.0794C89.531 29.32 89.5917 29.5596 89.72 29.7621C89.7665 29.8323 89.8285 29.8901 89.9011 29.9304C89.9744 29.9707 90.0555 29.9923 90.1387 29.9935C90.2205 29.9922 90.3008 29.9704 90.372 29.93C90.4432 29.8897 90.5046 29.832 90.549 29.7621C90.6752 29.5578 90.7344 29.3176 90.7182 29.0764C90.7337 28.8388 90.673 28.6023 90.5462 28.4026C90.5003 28.3325 90.4383 28.2749 90.3657 28.2346C90.2938 28.1943 90.2127 28.1725 90.1302 28.1711C90.0485 28.1727 89.9681 28.1947 89.8969 28.235C89.8257 28.2753 89.7644 28.3328 89.72 28.4026C89.591 28.6038 89.5296 28.8424 89.5451 29.0823L89.5479 29.0794ZM88.9022 29.0383C88.8987 28.764 88.9565 28.4925 89.0714 28.2444C89.163 28.0275 89.3125 27.8408 89.5021 27.7053C89.6861 27.5855 89.9004 27.5234 90.1182 27.5266C90.2945 27.5205 90.4686 27.5594 90.6258 27.6397C90.7837 27.7201 90.9184 27.8393 91.0192 27.9865C91.2405 28.2988 91.3568 28.6763 91.3491 29.0618C91.3533 29.3479 91.2941 29.6312 91.1771 29.891C91.0812 30.1159 90.9247 30.3088 90.7266 30.4477C90.5469 30.5708 90.3354 30.6361 90.1182 30.6352C89.9512 30.6384 89.7848 30.6029 89.6318 30.5313C89.4796 30.4598 89.3449 30.3541 89.2378 30.2221C88.9896 29.8818 88.8705 29.4613 88.9022 29.0383ZM83.8879 28.2151V27.5968H86.0592V28.2151H85.2851V30.559H84.6507V28.2151H83.8879ZM79.3523 29.2991V30.0668H79.9001C80.2138 30.0668 80.371 29.9398 80.371 29.6859C80.3752 29.631 80.3667 29.576 80.3463 29.5251C80.3258 29.4742 80.2941 29.4289 80.2532 29.3929C80.0974 29.3123 79.9219 29.2798 79.7485 29.2991H79.3523ZM79.3523 28.092V28.8186H79.8169C80.1538 28.8186 80.3223 28.6927 80.3223 28.4407C80.3223 28.1887 80.1538 28.0725 79.8169 28.092H79.3523ZM80.2701 30.5649H78.7186V27.5968H80.1531C80.6847 27.5968 80.9504 27.8557 80.9504 28.3733C80.9666 28.5153 80.9356 28.6586 80.863 28.7807C80.7904 28.9028 80.6797 28.9966 80.5486 29.0472C80.7002 29.0944 80.8313 29.1937 80.9201 29.3281C81.0082 29.4627 81.0484 29.6242 81.0336 29.7855C81.0378 29.8891 81.0216 29.9926 80.9864 30.0897C80.9511 30.1868 80.8968 30.2757 80.8271 30.351C80.7544 30.4246 80.667 30.4817 80.5712 30.5185C80.4753 30.5554 80.3731 30.5712 80.2701 30.5649ZM74.8428 29.135C74.7201 29.1819 74.5946 29.2211 74.467 29.2523C74.3275 29.2778 74.1956 29.3371 74.0828 29.4251C74.0518 29.4582 74.0278 29.4973 74.0116 29.5401C73.9961 29.5829 73.9891 29.6285 73.9912 29.6742C73.987 29.7812 74.0229 29.8859 74.0913 29.9671C74.1223 30.0046 74.1611 30.0345 74.2048 30.0547C74.2485 30.075 74.2957 30.0851 74.3437 30.0844C74.4402 30.0825 74.5333 30.0497 74.6108 29.9906C74.6919 29.9362 74.7554 29.8588 74.7941 29.7679C74.8364 29.6156 74.854 29.4572 74.8456 29.2991L74.8428 29.135ZM74.0109 28.4993L73.4371 28.3791C73.4773 28.1288 73.5971 27.8991 73.779 27.7258C73.9778 27.5806 74.2203 27.5102 74.4642 27.5266C74.6729 27.515 74.8815 27.5541 75.0726 27.6408C75.1981 27.7102 75.2989 27.8191 75.3595 27.9514C75.4335 28.1827 75.4638 28.4263 75.4483 28.6692V29.5863C75.4434 29.782 75.4532 29.9779 75.4772 30.1723C75.4991 30.3097 75.5357 30.4442 75.5858 30.5737H74.9633L74.8801 30.2485C74.7843 30.3685 74.6665 30.4681 74.5333 30.5414C74.412 30.6071 74.2774 30.6413 74.1399 30.6411C74.0335 30.645 73.927 30.6256 73.8276 30.5842C73.7289 30.5427 73.6401 30.4802 73.5661 30.4008C73.4907 30.3149 73.4315 30.2145 73.3941 30.1054C73.356 29.9963 73.3398 29.8806 73.3455 29.765C73.3426 29.6133 73.3737 29.4628 73.4371 29.3255C73.4956 29.2066 73.5837 29.1055 73.6923 29.0325C73.8565 28.9364 74.0349 28.8691 74.2203 28.8333C74.4304 28.7912 74.6348 28.7263 74.8315 28.6399C74.8385 28.5313 74.8273 28.4222 74.7969 28.3176C74.7702 28.2623 74.7257 28.218 74.6708 28.1916C74.5897 28.1548 74.5016 28.1378 74.4127 28.1418C74.3176 28.1362 74.2231 28.1641 74.1456 28.2209C74.0765 28.2991 74.03 28.3955 74.0109 28.4993ZM66.148 29.0296C66.1298 29.2883 66.1857 29.5469 66.3086 29.7738C66.3479 29.8439 66.4041 29.9026 66.472 29.9441C66.5398 29.9856 66.6169 30.0087 66.6959 30.0111C66.7696 30.0091 66.8414 29.9879 66.9047 29.9494C66.968 29.9109 67.0205 29.8566 67.0573 29.7914C67.1719 29.5711 67.2227 29.3222 67.2037 29.0736C67.2207 28.83 67.1678 28.5867 67.0516 28.3733C67.0141 28.3063 66.9604 28.2504 66.8956 28.2109C66.8308 28.1714 66.757 28.1496 66.6816 28.1477C66.605 28.1484 66.5298 28.1689 66.4631 28.2073C66.3964 28.2458 66.3403 28.3008 66.3 28.3674C66.1822 28.5665 66.1262 28.7974 66.1394 29.0296H66.148ZM65.5227 27.5968H66.1107V28.0334C66.1848 27.885 66.2943 27.758 66.4292 27.6642C66.5512 27.5832 66.6938 27.5405 66.8394 27.5412C66.979 27.5446 67.1156 27.5827 67.2375 27.6521C67.3595 27.7215 67.463 27.8202 67.5393 27.9396C67.7521 28.274 67.8527 28.6698 67.8262 29.0676C67.8546 29.4795 67.7541 29.8899 67.5393 30.2397C67.4637 30.3611 67.3602 30.4618 67.2376 30.5328C67.1151 30.6038 66.9773 30.6429 66.8365 30.6469C66.7129 30.6475 66.5913 30.6151 66.4837 30.5532C66.3489 30.4641 66.2329 30.3485 66.1422 30.2132V31.7046H65.5083L65.5227 27.5968ZM60.3705 28.2151V27.5968H62.5364V28.2151H61.7733V30.559H61.1307V28.2151H60.3705ZM55.2069 30.559V27.5968H55.8409V28.678H56.7416V27.5968H57.3727V30.5678H56.7388V29.2991H55.838V30.5532L55.2069 30.559ZM51.4777 28.8186C51.4854 28.6332 51.434 28.4503 51.3313 28.2971C51.2942 28.2435 51.2453 28.1997 51.1884 28.1692C51.1316 28.1386 51.0685 28.1222 51.0043 28.1213C50.9378 28.1215 50.8722 28.1381 50.8133 28.1697C50.7543 28.2013 50.7037 28.2471 50.6658 28.3029C50.5644 28.4541 50.5159 28.6358 50.5281 28.8186H51.4777ZM51.4432 29.6126L52.0714 29.7445C52.0117 30.0027 51.8743 30.2353 51.6784 30.4096C51.4936 30.5567 51.2644 30.6334 51.0301 30.6264C50.8758 30.6355 50.7215 30.6077 50.5796 30.5451C50.4376 30.4825 50.3119 30.387 50.2126 30.266C49.9687 29.928 49.8488 29.5132 49.8741 29.0941C49.8492 28.6713 49.9644 28.2523 50.2011 27.9045C50.2899 27.7861 50.4054 27.6912 50.5377 27.6279C50.67 27.5646 50.8153 27.5349 50.9613 27.5412C51.1154 27.5346 51.2687 27.5665 51.4082 27.6338C51.5475 27.7012 51.6689 27.8021 51.7616 27.928C52.0103 28.3132 52.1283 28.7713 52.0972 29.2317V29.2991H50.5166C50.5079 29.4933 50.5624 29.6849 50.6716 29.8441C50.7125 29.9033 50.7666 29.9517 50.8294 29.9853C50.8923 30.0189 50.9621 30.0368 51.033 30.0375C51.2433 30.0433 51.3791 29.9046 51.4404 29.6214L51.4432 29.6126ZM46.7042 29.8646H46.9738V31.4497H46.4317V30.5707H44.0908V26.4688H44.7506V29.8851H46.0444V26.4688H46.7042V29.8646Z" fill="#303030"/>
<path d="M44.491 23.9727C44.4399 23.9773 44.3883 23.971 44.3397 23.9542C44.2911 23.9374 44.2464 23.9104 44.2086 23.875C44.1707 23.8395 44.1405 23.7965 44.1197 23.7485C44.0991 23.7005 44.0884 23.6487 44.0884 23.5962C44.0884 23.5438 44.0991 23.4919 44.1197 23.4439C44.1405 23.3959 44.1707 23.3528 44.2086 23.3175C44.2464 23.282 44.2911 23.255 44.3397 23.2383C44.3883 23.2214 44.4399 23.2151 44.491 23.2197H154.521C154.573 23.2151 154.624 23.2214 154.673 23.2383C154.722 23.255 154.766 23.282 154.804 23.3175C154.842 23.3528 154.872 23.3959 154.893 23.4439C154.913 23.4919 154.924 23.5438 154.924 23.5962C154.924 23.6487 154.913 23.7005 154.893 23.7485C154.872 23.7965 154.842 23.8395 154.804 23.875C154.766 23.9104 154.722 23.9374 154.673 23.9542C154.624 23.971 154.573 23.9773 154.521 23.9727H44.491Z" fill="#303030"/>
<path d="M32.7114 20.8817H20.9097V22.7627H32.7114V20.8817Z" fill="#303030"/>
<path d="M26.8103 15.5872C29.6853 15.5795 32.5381 15.0732 35.2471 14.09V16.1146C32.5236 17.0255 29.6761 17.4904 26.8103 17.4917C22.3237 17.4858 17.8467 16.3021 13.3792 13.9406L10.7142 16.2845V28.6195H15.393C16.3741 27.8343 16.9076 26.4982 17.2519 24.9044V29.2992C17.2204 30.1489 16.7442 30.5152 15.9209 30.5034H10.1146C9.14794 30.5298 8.76354 29.894 8.81803 28.7455V15.4085L11.6179 12.9503C10.719 12.4131 9.8211 11.8271 8.92419 11.1923C8.92419 10.3661 8.92419 9.92952 8.92419 8.81611C10.2514 9.85946 11.6501 10.8043 13.1095 11.6435L20.1407 5.4731H33.7095L35.2499 7.02596V9.75369L32.9263 7.38633H20.8492L14.9168 12.5987C18.6461 14.4416 22.7253 15.5784 26.8218 15.5843" fill="#303030"/>
</svg>
