<svg width="111" height="20" viewBox="0 0 111 20" fill="none" xmlns="http://www.w3.org/2000/svg">
<g clip-path="url(#clip0_91_8300)">
<path d="M75.4229 14.5143H85.4413V12.2857H78.8382C79.749 8.62857 85.3275 7.82857 85.3275 3.77143C85.3275 1.6 83.8475 0 80.7167 0C78.7813 0 77.0736 0.571429 75.9352 1.14286L76.6182 3.2C77.6429 2.68571 78.8382 2.22857 80.3182 2.22857C81.4567 2.22857 82.5382 2.74286 82.5382 4.05714C82.5382 7.02857 75.9921 7.25714 75.4229 14.5143ZM85.7259 10.9714H92.1582V14.5143H94.7198V10.9714H96.8829V8.8H94.7198V0H92.8413L85.7259 9.25714V10.9714ZM88.629 8.91429L92.2721 4C92.2721 4.4 92.1582 5.65714 92.1582 6.8V8.85714H90.4505C89.9382 8.85714 88.9705 8.91429 88.629 8.91429Z" fill="#005893"/>
<path d="M2.67538 12.3433V7.82905H3.75692C4.72462 7.82905 5.52154 7.94333 6.09077 8.28619C6.66 8.62905 7.00154 9.20047 7.00154 10.1148C7.00154 11.6576 6.09077 12.3433 3.92769 12.3433H2.67538ZM0.0569231 14.5148H3.87077C8.14 14.5148 9.67692 12.629 9.67692 10.0005C9.67692 8.22904 8.93692 7.02905 7.62769 6.34333C6.60308 5.7719 5.29385 5.60047 3.7 5.60047H2.67538V2.1719H8.42461L9.10769 0.0576172H0V14.5148H0.0569231ZM11.4415 14.5148H13.9462L17.1908 9.82905C17.8169 8.9719 18.2723 8.11476 18.5569 7.65762H18.6138C18.5569 8.28619 18.5 9.08619 18.5 9.88619V14.4576H21.0615V4.1719H18.5569L15.3123 8.85762C14.7431 9.71476 14.2308 10.5719 13.9462 11.029H13.8892C13.9462 10.4005 14.0031 9.60047 14.0031 8.80047V4.22905H11.4415V14.5148ZM25.4446 14.5148H28.0631V6.34333H31.1369L31.82 4.1719H22.3138V6.34333H25.4446V14.5148ZM32.7308 19.7148H35.2923V14.5148C35.8046 14.6862 36.3169 14.7433 36.8862 14.7433C40.1308 14.7433 42.2369 12.5148 42.2369 9.31476C42.2369 6.00047 40.3015 3.88619 36.6015 3.88619C35.1785 3.88619 33.8123 4.1719 32.6738 4.51476V19.7148H32.7308ZM35.2923 12.2862V6.22905C35.6908 6.11476 36.0323 6.05762 36.4877 6.05762C38.3661 6.05762 39.5615 7.08619 39.5615 9.31476C39.5615 11.3148 38.5938 12.5719 36.6585 12.5719C36.1462 12.5719 35.7477 12.4576 35.2923 12.2862ZM43.7738 14.5148H46.2785L49.5231 9.82905C50.1492 8.9719 50.6046 8.11476 50.8892 7.65762H50.9462C50.8892 8.28619 50.8323 9.08619 50.8323 9.88619V14.4576H53.3938V4.1719H50.8892L47.6446 8.85762C47.0754 9.71476 46.5631 10.5719 46.2785 11.029H46.2215C46.2785 10.4005 46.3354 9.60047 46.3354 8.80047V4.22905H43.7738V14.5148ZM55.4431 14.5148H58.0615V10.229H59.5985C59.8831 10.229 60.1677 10.5148 60.5092 11.2005L61.8185 14.5148H64.6077L62.7292 10.5719C62.3877 9.88619 62.0462 9.48619 61.5338 9.31476V9.25762C62.3877 8.74333 62.5015 7.25762 63.0138 6.51476C63.1846 6.28619 63.4123 6.1719 63.7538 6.1719C63.9246 6.1719 64.1523 6.1719 64.3231 6.28619V4.05762C64.0385 3.94333 63.5261 3.88619 63.2415 3.88619C62.3308 3.88619 61.7615 4.22905 61.3631 4.80047C60.5092 6.05762 60.5092 8.22904 59.2569 8.22904H58.0615V4.1719H55.4431V14.5148ZM70.4138 14.7433C71.8369 14.7433 73.1461 14.2862 73.9431 13.7148L73.2031 11.9433C72.4631 12.3433 71.78 12.629 70.8123 12.629C69.0477 12.629 67.9092 11.4862 67.9092 9.3719C67.9092 7.48619 69.0477 6.00047 70.9831 6.00047C72.0077 6.00047 72.7477 6.28619 73.4877 6.80047V4.5719C72.9185 4.22905 72.0077 3.88619 70.6985 3.88619C67.6246 3.88619 65.2338 6.1719 65.2338 9.42904C65.2338 12.4005 67.0554 14.7433 70.4138 14.7433Z" fill="#0BBBEF"/>
<path d="M105.365 10.9712C108.154 10.9712 110.431 8.68552 110.431 5.88552C110.431 3.08552 108.154 0.799805 105.365 0.799805C102.576 0.799805 100.299 3.08552 100.299 5.88552C100.356 8.68552 102.576 10.9712 105.365 10.9712Z" stroke="#005893" stroke-width="1.7688"/>
<path d="M108.553 5.88594H105.763V3.08594H105.023V6.62879H108.553V5.88594Z" fill="#005893"/>
</g>
<defs>
<clipPath id="clip0_91_8300">
<rect width="111" height="20" fill="white"/>
</clipPath>
</defs>
</svg>
