<svg width="43" height="50" viewBox="0 0 43 50" fill="none" xmlns="http://www.w3.org/2000/svg">
<path d="M1 24.5C1 16.7224 1 12.8319 3.41595 10.4159C5.83189 8 9.72068 8 17.5 8C25.2776 8 29.1681 8 31.5841 10.4159C34 12.8319 34 16.7207 34 24.5C34 32.2776 34 36.1681 31.5841 38.5841C29.1681 41 25.2793 41 17.5 41C9.72242 41 5.83189 41 3.41595 38.5841C1 36.1681 1 32.2793 1 24.5Z" stroke="#303030" stroke-width="1.2" stroke-linecap="round" stroke-linejoin="round"/>
<path d="M17 34.5V27M17 17V19M17 19H24.3944C24.7893 19 25.1753 19.1169 25.5038 19.3359L28 21L25.5038 22.6641C25.1753 22.8831 24.7893 23 24.3944 23H17M17 19V23M17 23H12.6056C12.2107 23 11.8247 23.1169 11.4962 23.3359L9 25L11.4962 26.6641C11.8247 26.8831 12.2107 27 12.6056 27H17M17 23V27" stroke="#1A1A18" stroke-width="1.2" stroke-linecap="round" stroke-linejoin="round"/>
</svg>
