<svg width="20" height="20" viewBox="0 0 20 20" fill="none" xmlns="http://www.w3.org/2000/svg">
<path d="M9.99967 9.99935C9.08301 9.99935 8.33301 9.24935 8.33301 8.33268C8.33301 7.41602 9.08301 6.66602 9.99967 6.66602C10.9163 6.66602 11.6663 7.41602 11.6663 8.33268C11.6663 9.24935 10.9163 9.99935 9.99967 9.99935ZM14.9997 8.49935C14.9997 5.47435 12.7913 3.33268 9.99967 3.33268C7.20801 3.33268 4.99967 5.47435 4.99967 8.49935C4.99967 10.4493 6.62467 13.0327 9.99967 16.116C13.3747 13.0327 14.9997 10.4493 14.9997 8.49935ZM9.99967 1.66602C13.4997 1.66602 16.6663 4.34935 16.6663 8.49935C16.6663 11.266 14.4413 14.541 9.99967 18.3327C5.55801 14.541 3.33301 11.266 3.33301 8.49935C3.33301 4.34935 6.49967 1.66602 9.99967 1.66602Z" fill="#1A1A18"/>
</svg>
