<svg width="40" height="40" viewBox="0 0 40 40" fill="none" xmlns="http://www.w3.org/2000/svg">
<path d="M20 8.33334C13.5567 8.33334 8.33337 13.5567 8.33337 20C8.33337 26.4433 13.5567 31.6667 20 31.6667C26.4433 31.6667 31.6667 26.4433 31.6667 20C31.6667 13.5567 26.4433 8.33334 20 8.33334Z" stroke="#303030" stroke-width="1.2" stroke-linecap="round" stroke-linejoin="round"/>
<path d="M10.9828 27.4033C10.9828 27.4033 13.5833 24.0833 20 24.0833C26.4166 24.0833 29.0172 27.4033 29.0172 27.4033" stroke="#303030" stroke-width="1.2" stroke-linecap="round" stroke-linejoin="round"/>
<path d="M20 20C21.933 20 23.5 18.433 23.5 16.5C23.5 14.567 21.933 13 20 13C18.0669 13 16.5 14.567 16.5 16.5C16.5 18.433 18.0669 20 20 20Z" stroke="#303030" stroke-width="1.2" stroke-linecap="round" stroke-linejoin="round"/>
</svg>
