<svg width="20" height="20" viewBox="0 0 20 20" fill="none" xmlns="http://www.w3.org/2000/svg">
<path d="M9.16699 3.16797C12.4805 3.16814 15.167 5.85437 15.167 9.16797C15.1669 10.463 14.7535 11.6621 14.0557 12.6426L16.541 15.1279C16.9309 15.5185 16.9313 16.1517 16.541 16.542C16.1507 16.9323 15.5175 16.9319 15.127 16.542L12.6416 14.0566C11.6611 14.7545 10.4621 15.1679 9.16699 15.168C5.85339 15.168 3.16717 12.4815 3.16699 9.16797C3.16699 5.85426 5.85328 3.16797 9.16699 3.16797ZM9.16699 5.16797C6.95785 5.16797 5.16699 6.95883 5.16699 9.16797C5.16717 11.377 6.95796 13.168 9.16699 13.168C10.2736 13.1679 11.2739 12.7193 11.999 11.9922C12.7216 11.2677 13.1669 10.2708 13.167 9.16797C13.167 6.95894 11.376 5.16814 9.16699 5.16797Z" fill="#303030"/>
</svg>
