<svg width="20" height="20" viewBox="0 0 20 20" fill="none" xmlns="http://www.w3.org/2000/svg">
<g clip-path="url(#clip0_2039_6864)">
<path d="M10.7793 0.667969C11.2336 0.668115 11.6316 0.974645 11.7471 1.41406L12.1387 2.90625L13.3691 3.41211L14.3506 2.57422C14.7474 2.23519 15.338 2.25887 15.707 2.62793L17.374 4.29395C17.7413 4.66153 17.766 5.24956 17.4307 5.64648L16.5938 6.63477L17.084 7.81836L18.5801 8.19922C19.0231 8.31209 19.334 8.71076 19.334 9.16797V10.8154C19.3338 11.2705 19.0254 11.6685 18.585 11.7832L17.0791 12.1748L16.5879 13.3604L17.4297 14.3545C17.7659 14.7514 17.7418 15.3401 17.374 15.708L15.707 17.375C15.3315 17.7503 14.7284 17.7664 14.333 17.4121H14.332L14.3301 17.4102C14.3282 17.4085 14.3249 17.4056 14.3213 17.4023C14.3136 17.3955 14.3017 17.3851 14.2871 17.3721C14.2574 17.3456 14.2139 17.3066 14.1611 17.2598C14.0552 17.1658 13.9104 17.0377 13.7549 16.9023C13.6257 16.7899 13.4965 16.6797 13.3799 16.5811L12.1826 17.0771L11.8027 18.5801C11.6903 19.0235 11.2914 19.3347 10.834 19.335H9.16699C8.70915 19.335 8.30954 19.0229 8.19727 18.5791L7.81836 17.0771L6.66309 16.6025L5.63184 17.4434C5.23429 17.7671 4.65567 17.7374 4.29297 17.375L2.62695 15.708C2.25223 15.3333 2.2344 14.7316 2.58691 14.3359L3.42969 13.3896L2.93457 12.2168L1.40332 11.7998C0.96868 11.6811 0.667283 11.2855 0.666992 10.835V9.16797C0.666992 8.70334 0.987041 8.30006 1.43945 8.19434L2.91211 7.84961L3.39453 6.66309L2.55762 5.63184C2.23449 5.23412 2.26461 4.65629 2.62695 4.29395L4.29297 2.62793L4.36621 2.56152C4.7423 2.25245 5.29411 2.25797 5.66504 2.58789L6.61328 3.43066L7.78223 2.9375L8.18457 1.41309L8.24023 1.25488C8.4 0.902175 8.75402 0.667969 9.15137 0.667969H10.7793ZM9.5918 3.92383C9.51273 4.22356 9.29834 4.47035 9.0127 4.59082L6.80957 5.51953C6.45446 5.66922 6.04391 5.60069 5.75586 5.34473L5.04004 4.70801L4.67773 5.07031L5.32129 5.86133C5.55108 6.14451 5.60811 6.5313 5.4707 6.86914L4.57031 9.08301C4.44802 9.38353 4.18704 9.60685 3.87109 9.68066L2.66699 9.96094V10.0703L3.93164 10.416L4.04004 10.4521C4.28628 10.5509 4.48555 10.7448 4.58984 10.9922L5.51855 13.1963C5.66803 13.5517 5.5994 13.9621 5.34277 14.25L4.70801 14.9609L5.06836 15.3213L5.86133 14.6768L5.97266 14.5977C6.242 14.4335 6.57636 14.4045 6.87305 14.5264L9.04492 15.4199C9.33757 15.5405 9.55615 15.7928 9.63379 16.0996L9.94629 17.335H10.0557L10.3682 16.1006L10.4033 15.9883C10.5008 15.7333 10.6997 15.5276 10.9551 15.4219L13.1641 14.5068L13.2852 14.4658C13.5723 14.3882 13.8823 14.4416 14.1279 14.6172C14.332 14.7631 14.6696 15.049 14.9561 15.2969L15.3076 14.9453L14.667 14.1895C14.4249 13.9038 14.3628 13.5062 14.5059 13.1602L15.4209 10.9502C15.5408 10.6606 15.7904 10.4442 16.0938 10.3652L17.334 10.042V9.94434L16.1055 9.63281C15.8002 9.55502 15.5494 9.33783 15.4287 9.04688L14.5137 6.83789C14.3705 6.49217 14.4322 6.09533 14.6738 5.80957L15.3086 5.05762L14.9463 4.69531L14.2041 5.33105C13.919 5.57467 13.5207 5.63761 13.1738 5.49512L10.918 4.56738C10.6283 4.44816 10.4108 4.19945 10.3311 3.89648L10.0088 2.66797H9.92188L9.5918 3.92383ZM10 6.50098C11.933 6.50098 13.5 8.06794 13.5 10.001C13.5 11.934 11.933 13.501 10 13.501C8.06697 13.501 6.5 11.934 6.5 10.001C6.5 8.06794 8.06697 6.50098 10 6.50098ZM10 8.50098C9.17153 8.50098 8.5 9.17251 8.5 10.001C8.5 10.8294 9.17153 11.501 10 11.501C10.8285 11.501 11.5 10.8294 11.5 10.001C11.5 9.17251 10.8285 8.50098 10 8.50098Z" fill="#7E84A3"/>
</g>
<defs>
<clipPath id="clip0_2039_6864">
<rect width="20" height="20" fill="white"/>
</clipPath>
</defs>
</svg>
