<svg width="24" height="24" viewBox="0 0 24 24" fill="none" xmlns="http://www.w3.org/2000/svg">
<path d="M19 14C19.5523 14 20 14.4477 20 15V19.5859L21.293 18.293C21.6835 17.9024 22.3165 17.9024 22.707 18.293C23.0976 18.6835 23.0976 19.3165 22.707 19.707L19.707 22.707C19.6592 22.7548 19.6065 22.7976 19.5498 22.835C19.5121 22.8599 19.4727 22.8811 19.4326 22.9004C19.3874 22.9222 19.3407 22.9412 19.292 22.9561C19.2717 22.9622 19.2511 22.9668 19.2305 22.9717C19.2191 22.9744 19.2078 22.9772 19.1963 22.9795C19.1859 22.9816 19.1754 22.9826 19.165 22.9844C19.1112 22.9933 19.0563 23 19 23C18.9433 23 18.8881 22.9934 18.834 22.9844C18.8236 22.9826 18.8131 22.9816 18.8027 22.9795C18.7912 22.9772 18.7799 22.9744 18.7686 22.9717C18.748 22.9668 18.7273 22.9623 18.707 22.9561C18.6584 22.9412 18.6116 22.9222 18.5664 22.9004C18.5266 22.8812 18.4877 22.8597 18.4502 22.835C18.3935 22.7976 18.3408 22.7548 18.293 22.707L15.293 19.707C14.9024 19.3165 14.9024 18.6835 15.293 18.293C15.6835 17.9024 16.3165 17.9024 16.707 18.293L18 19.5859V15C18 14.4477 18.4477 14 19 14ZM20.4004 2C21.2838 2.00021 21.9998 2.7163 22 3.59961V12C22 12.5523 21.5523 13 21 13H13V21C13 21.5523 12.5523 22 12 22H3.59961C2.7163 21.9998 2.00021 21.2838 2 20.4004V3.59961C2.00021 2.71626 2.71626 2.00021 3.59961 2H20.4004ZM4 20H11V17.5H4V20ZM4 15.5H11V13H4V15.5ZM4 11H11V8.5H4V11ZM13 11H20V8.5H13V11ZM4 6.5H11V4H4V6.5ZM13 6.5H20V4H13V6.5Z" fill="#303030"/>
</svg>
