<svg width="40" height="40" viewBox="0 0 40 40" fill="none" xmlns="http://www.w3.org/2000/svg">
<path d="M20 9V13.8" stroke="#303030" stroke-width="1.2" stroke-linecap="round" stroke-linejoin="round"/>
<path d="M10.4 13.8L13.4 16.8" stroke="#303030" stroke-width="1.2" stroke-linecap="round" stroke-linejoin="round"/>
<path d="M26.6 16.8L29.6 13.8" stroke="#303030" stroke-width="1.2" stroke-linecap="round" stroke-linejoin="round"/>
<path d="M9.19995 24.6H12.8" stroke="#303030" stroke-width="1.2" stroke-linecap="round" stroke-linejoin="round"/>
<path d="M20 24.6L21.2 17.4" stroke="#303030" stroke-width="1.2" stroke-linecap="round" stroke-linejoin="round"/>
<path d="M27.2 24.6H30.8" stroke="#303030" stroke-width="1.2" stroke-linecap="round" stroke-linejoin="round"/>
<path d="M15.8 28.2012H10.4C8.89302 26.1954 8 23.7019 8 21C8 14.3726 13.3726 9 20 9C26.6274 9 32 14.3726 32 21C32 23.7019 31.107 26.1954 29.6 28.2012L24.2 28.2" stroke="#303030" stroke-width="1.2" stroke-linecap="round" stroke-linejoin="round"/>
<path d="M20 31.8C21.9883 31.8 23.6 30.1883 23.6 28.2C23.6 26.2117 21.9883 24.6 20 24.6C18.0117 24.6 16.4 26.2117 16.4 28.2C16.4 30.1883 18.0117 31.8 20 31.8Z" stroke="#303030" stroke-width="1.2" stroke-linecap="round" stroke-linejoin="round"/>
</svg>
