<svg width="40" height="40" viewBox="0 0 40 40" fill="none" xmlns="http://www.w3.org/2000/svg">
<path d="M32.3334 9.59961C35.0396 9.59961 37.2338 11.7938 37.2338 14.5C37.2338 17.2062 35.0396 19.4004 32.3334 19.4004C31.44 19.4004 30.6042 19.1616 29.8842 18.7451L29.6918 18.6338L29.474 18.6748L27.8578 18.9746L28.1586 17.3594L28.1996 17.1416L28.0883 16.9492C27.6718 16.2292 27.433 15.3933 27.433 14.5C27.433 11.7938 29.6272 9.59961 32.3334 9.59961Z" stroke="#7E84A3" stroke-width="1.2"/>
<mask id="path-2-inside-1_2001_7964" fill="white">
<path d="M12 31V29.875C12 25.5258 15.5817 22 20 22C24.4183 22 28 25.5258 28 29.875V31"/>
</mask>
<path d="M12 31H13.2V29.875H12H10.8V31H12ZM12 29.875H13.2C13.2 26.2062 16.2266 23.2 20 23.2V22V20.8C14.9369 20.8 10.8 24.8453 10.8 29.875H12ZM20 22V23.2C23.7734 23.2 26.8 26.2062 26.8 29.875H28H29.2C29.2 24.8453 25.0631 20.8 20 20.8V22ZM28 29.875H26.8V31H28H29.2V29.875H28Z" fill="#7E84A3" mask="url(#path-2-inside-1_2001_7964)"/>
<path d="M20 25V30" stroke="#7E84A3" stroke-width="1.2"/>
<path d="M3 29V28.125C3 24.7422 5.91015 22 9.5 22C10.8914 22 12.1807 22.412 13.238 23.1135" stroke="#7E84A3" stroke-width="1.2"/>
<path d="M20 13.5996C22.1539 13.5996 23.9004 15.3461 23.9004 17.5C23.9004 19.6539 22.1539 21.4004 20 21.4004C17.8461 21.4004 16.0996 19.6539 16.0996 17.5C16.0996 15.3461 17.8461 13.5996 20 13.5996Z" stroke="#7E84A3" stroke-width="1.2"/>
<circle cx="3.47368" cy="3.47368" r="2.87368" transform="matrix(-1 0 0 1 12.9474 15)" stroke="#7E84A3" stroke-width="1.2"/>
</svg>
