<svg width="40" height="40" viewBox="0 0 40 40" fill="none" xmlns="http://www.w3.org/2000/svg">
<path d="M20 31.6673C26.4433 31.6673 31.6667 26.4439 31.6667 20.0007C31.6667 13.5573 26.4433 8.33398 20 8.33398C13.5567 8.33398 8.33337 13.5573 8.33337 20.0007C8.33337 26.4439 13.5567 31.6673 20 31.6673Z" stroke="#303030" stroke-width="1.2" stroke-linecap="round" stroke-linejoin="round"/>
<path d="M16.5 23.5H22.3333" stroke="#303030" stroke-width="1.2" stroke-linecap="round" stroke-linejoin="round"/>
<path d="M16.5 18.8327H22.3333C22.9522 18.8327 23.5457 18.5868 23.9832 18.1493C24.4208 17.7117 24.6667 17.1182 24.6667 16.4993C24.6667 15.8805 24.4208 15.287 23.9832 14.8494C23.5457 14.4118 22.9522 14.166 22.3333 14.166H18.8333V25.8327" stroke="#303030" stroke-width="1.2" stroke-linecap="round" stroke-linejoin="round"/>
</svg>
