<svg width="41" height="40" viewBox="0 0 41 40" fill="none" xmlns="http://www.w3.org/2000/svg">
<mask id="path-1-inside-1_2001_7991" fill="white">
<path d="M26.8613 16.6957C26.6181 16.4628 26.2944 16.3329 25.9577 16.3329C25.621 16.3329 25.2973 16.4628 25.0541 16.6957C24.5116 17.2131 23.7907 17.5018 23.041 17.5018C22.2913 17.5018 21.5704 17.2131 21.028 16.6957C20.7848 16.4632 20.4614 16.3334 20.125 16.3334C19.7885 16.3334 19.4651 16.4632 19.222 16.6957C18.6794 17.2134 17.9583 17.5023 17.2083 17.5023C16.4583 17.5023 15.7372 17.2134 15.1946 16.6957C14.9514 16.4628 14.6277 16.3329 14.291 16.3329C13.9544 16.3329 13.6307 16.4628 13.3875 16.6957C12.8634 17.1957 12.1721 17.4829 11.448 17.5013C10.7239 17.5197 10.0189 17.268 9.47014 16.7953C8.92139 16.3225 8.56818 15.6624 8.47927 14.9436C8.39036 14.2248 8.45828 13.4173 8.98912 12.9063L11.9583 9.50065C12.5416 8.91732 12.8614 8.78438 13.1982 8.60581C13.535 8.42724 13.9104 8.33391 14.2916 8.33398H25.9583C26.3384 8.33384 26.7128 8.42655 27.0489 8.60405C27.385 8.78156 27.7083 8.91732 28.2916 9.50065L31.2643 12.9098C31.7916 13.4173 31.8629 14.2293 31.7734 14.9485C31.684 15.6677 31.3299 16.3279 30.7803 16.8003C30.2307 17.2727 29.5249 17.5236 28.8004 17.504C28.0759 17.4845 27.3846 17.1959 26.8613 16.6945"/>
</mask>
<path d="M25.0541 16.6957L25.8824 17.564L25.8839 17.5625L25.0541 16.6957ZM21.028 16.6957L20.1987 17.563L20.1997 17.564L21.028 16.6957ZM19.222 16.6957L20.0504 17.5638L20.0512 17.563L19.222 16.6957ZM15.1946 16.6957L14.3648 17.5625L14.3661 17.5638L15.1946 16.6957ZM13.3875 16.6957L14.2159 17.5638L14.2173 17.5625L13.3875 16.6957ZM8.98912 12.9063L9.82134 13.7708L9.85915 13.7345L9.89363 13.6949L8.98912 12.9063ZM11.9583 9.50065L11.1098 8.65212L11.0807 8.68114L11.0538 8.71207L11.9583 9.50065ZM14.2916 8.33398L14.2914 9.53398H14.2916V8.33398ZM25.9583 8.33398V9.53398L25.9588 9.53398L25.9583 8.33398ZM28.2916 9.50065L29.1961 8.712L29.1691 8.68111L29.1401 8.65212L28.2916 9.50065ZM31.2643 12.9098L30.3598 13.6985L30.3943 13.738L30.4322 13.7744L31.2643 12.9098ZM26.8613 16.6957L27.6911 15.8288C27.2246 15.3822 26.6036 15.1329 25.9577 15.1329V16.3329V17.5329C25.9852 17.5329 26.0116 17.5435 26.0315 17.5625L26.8613 16.6957ZM25.9577 16.3329V15.1329C25.3118 15.1329 24.6909 15.3822 24.2243 15.8288L25.0541 16.6957L25.8839 17.5625C25.9038 17.5435 25.9302 17.5329 25.9577 17.5329V16.3329ZM25.0541 16.6957L24.2259 15.8273C23.9066 16.1319 23.4823 16.3018 23.041 16.3018V17.5018V18.7018C24.0992 18.7018 25.1167 18.2943 25.8824 17.564L25.0541 16.6957ZM23.041 17.5018V16.3018C22.5998 16.3018 22.1755 16.1319 21.8562 15.8273L21.028 16.6957L20.1997 17.564C20.9654 18.2943 21.9829 18.7018 23.041 18.7018V17.5018ZM21.028 16.6957L21.8572 15.8283C21.3908 15.3823 20.7703 15.1334 20.125 15.1334V16.3334V17.5334C20.1524 17.5334 20.1788 17.544 20.1987 17.563L21.028 16.6957ZM20.125 16.3334V15.1334C19.4796 15.1334 18.8591 15.3823 18.3927 15.8283L19.222 16.6957L20.0512 17.563C20.0711 17.544 20.0975 17.5334 20.125 17.5334V16.3334ZM19.222 16.6957L18.3935 15.8275C18.0741 16.1323 17.6497 16.3023 17.2083 16.3023V17.5023V18.7023C18.2668 18.7023 19.2847 18.2946 20.0504 17.5638L19.222 16.6957ZM17.2083 17.5023V16.3023C16.7669 16.3023 16.3424 16.1323 16.0231 15.8275L15.1946 16.6957L14.3661 17.5638C15.1319 18.2946 16.1498 18.7023 17.2083 18.7023V17.5023ZM15.1946 16.6957L16.0244 15.8288C15.5579 15.3822 14.9369 15.1329 14.291 15.1329V16.3329V17.5329C14.3185 17.5329 14.3449 17.5435 14.3648 17.5625L15.1946 16.6957ZM14.291 16.3329V15.1329C13.6452 15.1329 13.0242 15.3822 12.5576 15.8288L13.3875 16.6957L14.2173 17.5625C14.2371 17.5435 14.2636 17.5329 14.291 17.5329V16.3329ZM13.3875 16.6957L12.559 15.8275C12.2506 16.1218 11.8437 16.2908 11.4175 16.3017L11.448 17.5013L11.4785 18.7009C12.5005 18.6749 13.4763 18.2696 14.2159 17.5638L13.3875 16.6957ZM11.448 17.5013L11.4175 16.3017C10.9913 16.3125 10.5764 16.1644 10.2534 15.8861L9.47014 16.7953L8.68689 17.7044C9.46142 18.3717 10.4565 18.7269 11.4785 18.7009L11.448 17.5013ZM9.47014 16.7953L10.2534 15.8861C9.93041 15.6079 9.72253 15.2194 9.67019 14.7963L8.47927 14.9436L7.28835 15.0909C7.41384 16.1055 7.91237 17.0371 8.68689 17.7044L9.47014 16.7953ZM8.47927 14.9436L9.67019 14.7963C9.63584 14.5186 9.63935 14.2751 9.67778 14.0859C9.71483 13.9034 9.77396 13.8165 9.82134 13.7708L8.98912 12.9063L8.1569 12.0418C7.19897 12.9639 7.18808 14.2803 7.28835 15.0909L8.47927 14.9436ZM8.98912 12.9063L9.89363 13.6949L12.8628 10.2892L11.9583 9.50065L11.0538 8.71207L8.08461 12.1177L8.98912 12.9063ZM11.9583 9.50065L12.8068 10.3492C13.0511 10.1049 13.2147 9.98007 13.331 9.90346C13.4632 9.81635 13.5454 9.77998 13.7603 9.66602L13.1982 8.60581L12.6361 7.54561C12.2845 7.73203 11.828 7.93388 11.1098 8.65212L11.9583 9.50065ZM13.1982 8.60581L13.7603 9.66602C13.9239 9.57928 14.1062 9.53395 14.2914 9.53398L14.2916 8.33398L14.2918 7.13398C13.7146 7.13388 13.1461 7.27521 12.6361 7.54561L13.1982 8.60581ZM14.2916 8.33398V9.53398H25.9583V8.33398V7.13398H14.2916V8.33398ZM25.9583 8.33398L25.9588 9.53398C26.1434 9.53391 26.3252 9.57894 26.4885 9.66516L27.0489 8.60405L27.6093 7.54295C27.1003 7.27415 26.5334 7.13376 25.9578 7.13398L25.9583 8.33398ZM27.0489 8.60405L26.4885 9.66516C26.7004 9.77711 26.7849 9.81496 26.9171 9.90206C27.0344 9.97942 27.1989 10.105 27.4431 10.3492L28.2916 9.50065L29.1401 8.65212C28.4221 7.93408 27.9627 7.72961 27.6093 7.54295L27.0489 8.60405ZM28.2916 9.50065L27.3872 10.2893L30.3598 13.6985L31.2643 12.9098L32.1687 12.1212L29.1961 8.712L28.2916 9.50065ZM31.2643 12.9098L30.4322 13.7744C30.4767 13.8173 30.5366 13.9039 30.5743 14.0892C30.6132 14.2801 30.6169 14.5249 30.5826 14.8004L31.7734 14.9485L32.9643 15.0966C33.0654 14.2835 33.0504 12.9634 32.0964 12.0452L31.2643 12.9098ZM31.7734 14.9485L30.5826 14.8004C30.53 15.2237 30.3216 15.6122 29.9981 15.8903L30.7803 16.8003L31.5625 17.7103C32.3383 17.0435 32.838 16.1118 32.9643 15.0966L31.7734 14.9485ZM30.7803 16.8003L29.9981 15.8903C29.6746 16.1683 29.2592 16.316 28.8328 16.3045L28.8004 17.504L28.768 18.7036C29.7906 18.7312 30.7868 18.3771 31.5625 17.7103L30.7803 16.8003ZM28.8004 17.504L28.8328 16.3045C28.4063 16.293 27.9995 16.1231 27.6915 15.828L26.8613 16.6945L26.0311 17.561C26.7698 18.2687 27.7454 18.676 28.768 18.7036L28.8004 17.504Z" fill="#7E84A3" mask="url(#path-1-inside-1_2001_7991)"/>
<mask id="path-3-inside-2_2001_7991" fill="white">
<path d="M10.7916 16.4414V28.1664C10.7916 28.7852 11.0375 29.3787 11.475 29.8163C11.9126 30.2539 12.5061 30.4997 13.125 30.4997H27.125C27.7438 30.4997 28.3373 30.2539 28.7749 29.8163C29.2125 29.3787 29.4583 28.7852 29.4583 28.1664V16.4414"/>
</mask>
<path d="M10.7916 28.1664H9.59163H10.7916ZM10.7916 16.4414H9.59163V28.1664H10.7916H11.9916V16.4414H10.7916ZM10.7916 28.1664H9.59163C9.59163 29.1035 9.96389 30.0022 10.6265 30.6648L11.475 29.8163L12.3236 28.9678C12.111 28.7553 11.9916 28.467 11.9916 28.1664H10.7916ZM11.475 29.8163L10.6265 30.6648C11.2891 31.3275 12.1879 31.6997 13.125 31.6997V30.4997V29.2997C12.8244 29.2997 12.5361 29.1803 12.3236 28.9678L11.475 29.8163ZM13.125 30.4997V31.6997H27.125V30.4997V29.2997H13.125V30.4997ZM27.125 30.4997V31.6997C28.0621 31.6997 28.9608 31.3275 29.6234 30.6648L28.7749 29.8163L27.9263 28.9678C27.7138 29.1803 27.4255 29.2997 27.125 29.2997V30.4997ZM28.7749 29.8163L29.6234 30.6648C30.286 30.0022 30.6583 29.1035 30.6583 28.1664H29.4583H28.2583C28.2583 28.467 28.1389 28.7553 27.9263 28.9678L28.7749 29.8163ZM29.4583 28.1664H30.6583V16.4414H29.4583H28.2583V28.1664H29.4583Z" fill="#7E84A3" mask="url(#path-3-inside-2_2001_7991)"/>
<mask id="path-5-inside-3_2001_7991" fill="white">
<path d="M24.7917 30.5007C24.7917 29.263 24.3 28.076 23.4249 27.2008C22.5497 26.3257 21.3627 25.834 20.125 25.834C18.8874 25.834 17.7004 26.3257 16.8252 27.2008C15.95 28.076 15.4584 29.263 15.4584 30.5007"/>
</mask>
<path d="M24.7917 30.5007H25.9917C25.9917 28.9447 25.3736 27.4525 24.2734 26.3523L23.4249 27.2008L22.5763 28.0493C23.2265 28.6995 23.5917 29.5812 23.5917 30.5007H24.7917ZM23.4249 27.2008L24.2734 26.3523C23.1732 25.2521 21.681 24.634 20.125 24.634V25.834V27.034C21.0445 27.034 21.9262 27.3992 22.5763 28.0493L23.4249 27.2008ZM20.125 25.834V24.634C18.5691 24.634 17.0769 25.2521 15.9767 26.3523L16.8252 27.2008L17.6737 28.0493C18.3239 27.3992 19.2056 27.034 20.125 27.034V25.834ZM16.8252 27.2008L15.9767 26.3523C14.8765 27.4525 14.2584 28.9447 14.2584 30.5007H15.4584H16.6584C16.6584 29.5812 17.0236 28.6995 17.6737 28.0493L16.8252 27.2008Z" fill="#7E84A3" mask="url(#path-5-inside-3_2001_7991)"/>
<path d="M20.125 19.4336C21.7266 19.4336 23.0254 20.7324 23.0254 22.334C23.0254 23.9356 21.7266 25.2344 20.125 25.2344C18.5234 25.2344 17.2246 23.9356 17.2246 22.334C17.2246 20.7324 18.5234 19.4336 20.125 19.4336Z" stroke="#7E84A3" stroke-width="1.2"/>
</svg>
