<svg width="41" height="40" viewBox="0 0 41 40" fill="none" xmlns="http://www.w3.org/2000/svg">
<circle cx="19.625" cy="20" r="6" fill="#FFDD00"/>
<path d="M30.1382 22.4769C32.2 20.4244 33.5 18.7058 33.5 16.1176C33.5 14.6775 33.0611 13.2712 32.2414 12.0846C31.4217 10.898 30.2597 9.98685 28.9089 9.47145C27.5581 8.95605 26.082 8.86068 24.6756 9.19793C23.2692 9.53518 21.9986 10.2892 21.0317 11.3604M30.1382 22.4769C29.8818 22.7322 29.5774 22.9347 29.2424 23.0728C28.9073 23.211 28.5482 23.2821 28.1856 23.2821C27.823 23.2821 27.4639 23.211 27.1288 23.0728C26.7938 22.9347 26.4894 22.7322 26.233 22.4769C26.5106 22.7268 26.7343 23.0303 26.8904 23.3689C27.0466 23.7075 27.132 24.0742 27.1414 24.4466C27.1508 24.8191 27.084 25.1896 26.9451 25.5356C26.8063 25.8816 26.5982 26.1959 26.3335 26.4593C26.0689 26.7228 25.7532 26.9299 25.4056 27.0682C25.058 27.2064 24.6859 27.2729 24.3117 27.2635C23.9375 27.2542 23.5692 27.1692 23.229 27.0137C22.8889 26.8583 22.584 26.6356 22.333 26.3593C22.5896 26.6137 22.7933 26.9161 22.9325 27.249C23.0717 27.5819 23.1435 27.9388 23.144 28.2994C23.1445 28.66 23.0736 29.0171 22.9353 29.3504C22.797 29.6836 22.5941 29.9865 22.3382 30.2416C22.0912 30.4876 21.7969 30.6815 21.4729 30.8118C21.1489 30.942 20.8018 31.0059 20.4525 30.9996C20.1031 30.9933 19.7586 30.917 19.4396 30.7752C19.1205 30.6334 18.8334 30.4291 18.5955 30.1743L11.4 23.2352C9.45 21.2941 7.5 19.094 7.5 16.1176C7.50029 14.6776 7.93932 13.2715 8.75913 12.0851C9.57893 10.8987 10.7409 9.98775 12.0917 9.47251C13.4425 8.95728 14.9184 8.86201 16.3247 9.1993C17.731 9.53658 19.0015 10.2906 19.9683 11.3616C20.1128 11.4954 20.3029 11.5696 20.5003 11.5694C20.6976 11.5691 20.8875 11.4944 21.0317 11.3604M30.1382 22.4769C30.6256 21.9915 30.8994 21.3333 30.8994 20.647C30.8994 19.9607 30.6256 19.3025 30.1382 18.8171L27.6929 16.3816C27.402 16.0918 27.0565 15.862 26.6763 15.7051C26.2961 15.5483 25.8886 15.4676 25.477 15.4676C25.0655 15.4676 24.658 15.5483 24.2778 15.7051C23.8976 15.862 23.5521 16.0918 23.2612 16.3816L21.0382 18.5945C20.5506 19.0797 19.8894 19.3523 19.2 19.3523C18.5106 19.3523 17.8494 19.0797 17.3618 18.5945C16.8744 18.1091 16.6006 17.4509 16.6006 16.7646C16.6006 16.0783 16.8744 15.4201 17.3618 14.9347L21.0317 11.3604" stroke="#303030" stroke-width="1.2" stroke-linecap="round" stroke-linejoin="round"/>
</svg>
