<svg width="20" height="20" viewBox="0 0 20 20" fill="none" xmlns="http://www.w3.org/2000/svg">
<path fill-rule="evenodd" clip-rule="evenodd" d="M10 1.66797C14.6024 1.66797 18.333 5.3986 18.333 10.001C18.333 14.6033 14.6024 18.334 10 18.334C5.39763 18.334 1.66699 14.6033 1.66699 10.001C1.66699 5.3986 5.39763 1.66797 10 1.66797ZM13.207 7.62695C12.8165 7.23665 12.1835 7.23665 11.793 7.62695L9.16602 10.2529L8.20703 9.29395C7.81655 8.90364 7.18345 8.90364 6.79297 9.29395C6.40266 9.68443 6.40266 10.3175 6.79297 10.708L8.45996 12.374C8.85049 12.7645 9.4835 12.7645 9.87402 12.374L13.207 9.04102C13.5974 8.65048 13.5975 8.01742 13.207 7.62695Z" fill="#7E84A3"/>
</svg>
