<svg width="43" height="50" viewBox="0 0 43 50" fill="none" xmlns="http://www.w3.org/2000/svg">
<path d="M1 24.5C1 16.7224 1 12.8319 3.41595 10.4159C5.83189 8 9.72068 8 17.5 8C25.2776 8 29.1681 8 31.5841 10.4159C34 12.8319 34 16.7207 34 24.5C34 32.2776 34 36.1681 31.5841 38.5841C29.1681 41 25.2793 41 17.5 41C9.72242 41 5.83189 41 3.41595 38.5841C1 36.1681 1 32.2793 1 24.5Z" stroke="#303030" stroke-width="1.2" stroke-linecap="round" stroke-linejoin="round"/>
<path d="M13 22V34" stroke="#303030" stroke-width="1.2" stroke-linecap="round" stroke-linejoin="round"/>
<path d="M21 17.88L20 22H25.83C26.1405 22 26.4467 22.0723 26.7244 22.2111C27.0021 22.35 27.2437 22.5516 27.43 22.8C27.6163 23.0484 27.7422 23.3367 27.7977 23.6422C27.8533 23.9477 27.8369 24.2619 27.75 24.56L25.42 32.56C25.2988 32.9754 25.0462 33.3404 24.7 33.6C24.3538 33.8596 23.9327 34 23.5 34H10C9.46957 34 8.96086 33.7893 8.58579 33.4142C8.21071 33.0391 8 32.5304 8 32V24C8 23.4696 8.21071 22.9609 8.58579 22.5858C8.96086 22.2107 9.46957 22 10 22H12.76C13.1321 21.9998 13.4967 21.8958 13.813 21.6997C14.1292 21.5036 14.3844 21.2232 14.55 20.89L18 14C18.4716 14.0058 18.9357 14.1182 19.3578 14.3286C19.7799 14.539 20.1489 14.8421 20.4374 15.2152C20.7259 15.5883 20.9263 16.0218 21.0237 16.4832C21.1212 16.9446 21.113 17.4221 21 17.88Z" stroke="#303030" stroke-width="1.2" stroke-linecap="round" stroke-linejoin="round"/>
</svg>
