<svg width="43" height="50" viewBox="0 0 43 50" fill="none" xmlns="http://www.w3.org/2000/svg">
<path d="M10.8571 36.786H14.1429M1 20.3574C1 14.936 1 12.2253 2.68393 10.5414C4.36786 8.85742 7.07857 8.85742 12.5 8.85742C17.9214 8.85742 20.6321 8.85742 22.3161 10.5414C24 12.2253 24 14.936 24 20.3574V30.2146C24 35.636 24 38.3467 22.3161 40.0306C20.6321 41.7146 17.9214 41.7146 12.5 41.7146C7.07857 41.7146 4.36786 41.7146 2.68393 40.0306C1 38.3467 1 35.636 1 30.2146V20.3574Z" stroke="#303030" stroke-width="1.2" stroke-linecap="round" stroke-linejoin="round"/>
<path d="M7.57227 8.85742L7.71848 9.73471C8.03555 11.6355 8.19491 12.5867 8.84548 13.165C9.52726 13.7679 10.49 13.786 12.5008 13.786C14.5117 13.786 15.4744 13.7696 16.1562 13.165C16.8084 12.5867 16.9661 11.6371 17.2832 9.73471L17.4294 8.85742" stroke="#303030" stroke-width="1.2" stroke-linecap="round" stroke-linejoin="round"/>
</svg>
