<svg width="43" height="50" viewBox="0 0 43 50" fill="none" xmlns="http://www.w3.org/2000/svg">
<path d="M1 24.5C1 16.7224 1 12.8319 3.41595 10.4159C5.83189 8 9.72068 8 17.5 8C25.2776 8 29.1681 8 31.5841 10.4159C34 12.8319 34 16.7207 34 24.5C34 32.2776 34 36.1681 31.5841 38.5841C29.1681 41 25.2793 41 17.5 41C9.72242 41 5.83189 41 3.41595 38.5841C1 36.1681 1 32.2793 1 24.5Z" stroke="#303030" stroke-width="1.2" stroke-linecap="round" stroke-linejoin="round"/>
<path d="M25 25.0001C25 23.3286 24.4765 21.699 23.5028 20.3402C22.5292 18.9815 21.1544 17.9619 19.5715 17.4245C17.9886 16.8872 16.2772 16.8593 14.6776 17.3445C13.078 17.8298 11.6706 18.8039 10.653 20.1301C9.63549 21.4563 9.0589 23.0679 9.00428 24.7386C8.94965 26.4092 9.41972 28.0551 10.3485 29.4449C11.2772 30.8347 12.618 31.8987 14.1825 32.4874C15.7469 33.0761 17.4565 33.16 19.0711 32.7273" stroke="#303030" stroke-width="1.2" stroke-linecap="round"/>
<path d="M17.0009 28.5554C18.9645 28.5554 20.5564 26.9636 20.5564 24.9999C20.5564 23.0362 18.9645 21.4443 17.0009 21.4443C15.0372 21.4443 13.4453 23.0362 13.4453 24.9999C13.4453 26.9636 15.0372 28.5554 17.0009 28.5554Z" stroke="#303030" stroke-width="1.2"/>
<path d="M20.5547 22.334V26.334C20.5547 26.9234 20.7888 27.4886 21.2056 27.9053C21.6223 28.3221 22.1875 28.5562 22.7769 28.5562C23.3663 28.5562 23.9315 28.3221 24.3483 27.9053C24.765 27.4886 24.9991 26.9234 24.9991 26.334V25.0007" stroke="#303030" stroke-width="1.2" stroke-linecap="round"/>
</svg>
