<svg width="40" height="40" viewBox="0 0 40 40" fill="none" xmlns="http://www.w3.org/2000/svg">
<path d="M29.6382 22.4769C31.7 20.4244 33 18.7058 33 16.1176C33 14.6775 32.5611 13.2712 31.7414 12.0846C30.9217 10.898 29.7597 9.98685 28.4089 9.47145C27.0581 8.95605 25.582 8.86068 24.1756 9.19793C22.7692 9.53518 21.4986 10.2892 20.5317 11.3604M29.6382 22.4769C29.3818 22.7322 29.0774 22.9347 28.7424 23.0728C28.4073 23.211 28.0482 23.2821 27.6856 23.2821C27.323 23.2821 26.9639 23.211 26.6288 23.0728C26.2938 22.9347 25.9894 22.7322 25.733 22.4769C26.0106 22.7268 26.2343 23.0303 26.3904 23.3689C26.5466 23.7075 26.632 24.0742 26.6414 24.4466C26.6508 24.8191 26.584 25.1896 26.4451 25.5356C26.3063 25.8816 26.0982 26.1959 25.8335 26.4593C25.5689 26.7228 25.2532 26.9299 24.9056 27.0682C24.558 27.2064 24.1859 27.2729 23.8117 27.2635C23.4375 27.2542 23.0692 27.1692 22.729 27.0137C22.3889 26.8583 22.084 26.6356 21.833 26.3593C22.0896 26.6137 22.2933 26.9161 22.4325 27.249C22.5717 27.5819 22.6435 27.9388 22.644 28.2994C22.6445 28.66 22.5736 29.0171 22.4353 29.3504C22.297 29.6836 22.0941 29.9865 21.8382 30.2416C21.5912 30.4876 21.2969 30.6815 20.9729 30.8118C20.6489 30.942 20.3018 31.0059 19.9525 30.9996C19.6031 30.9933 19.2586 30.917 18.9396 30.7752C18.6205 30.6334 18.3334 30.4291 18.0955 30.1743L10.9 23.2352C8.95 21.2941 7 19.094 7 16.1176C7.00029 14.6776 7.43932 13.2715 8.25913 12.0851C9.07893 10.8987 10.2409 9.98775 11.5917 9.47251C12.9425 8.95728 14.4184 8.86201 15.8247 9.1993C17.231 9.53658 18.5015 10.2906 19.4683 11.3616C19.6128 11.4954 19.8029 11.5696 20.0003 11.5694C20.1976 11.5691 20.3875 11.4944 20.5317 11.3604M29.6382 22.4769C30.1256 21.9915 30.3994 21.3333 30.3994 20.647C30.3994 19.9607 30.1256 19.3025 29.6382 18.8171L27.1929 16.3816C26.902 16.0918 26.5565 15.862 26.1763 15.7051C25.7961 15.5483 25.3886 15.4676 24.977 15.4676C24.5655 15.4676 24.158 15.5483 23.7778 15.7051C23.3976 15.862 23.0521 16.0918 22.7612 16.3816L20.5382 18.5945C20.0506 19.0797 19.3894 19.3523 18.7 19.3523C18.0106 19.3523 17.3494 19.0797 16.8618 18.5945C16.3744 18.1091 16.1006 17.4509 16.1006 16.7646C16.1006 16.0783 16.3744 15.4201 16.8618 14.9347L20.5317 11.3604" stroke="#303030" stroke-width="1.2" stroke-linecap="round" stroke-linejoin="round"/>
</svg>
