<?xml version="1.0" encoding="utf-8"?><svg viewBox="0 0 41 46" xmlns="http://www.w3.org/2000/svg" xmlns:xlink="http://www.w3.org/1999/xlink"><style>:root>svg{display:none}:root>svg:target{display:block}</style><svg viewBox="0 0 40 40" id="dashboard" xmlns="http://www.w3.org/2000/svg"><path d="M20 9v4.8M10.4 13.8l3 3M26.6 16.8l3-3M9.2 24.6h3.6M20 24.6l1.2-7.2M27.2 24.6h3.6M15.8 28.201h-5.4A11.947 11.947 0 018 21c0-6.627 5.373-12 12-12s12 5.373 12 12c0 2.702-.893 5.195-2.4 7.201l-5.4-.001"/><path d="M20 31.8a3.6 3.6 0 100-7.2 3.6 3.6 0 000 7.2z"/></svg><svg viewBox="0 0 24 24" id="edit" xmlns="http://www.w3.org/2000/svg"><path d="M21 20a1 1 0 010 2H3a1 1 0 010-2h18zM14.343 2.293c.39-.39 1.024-.39 1.415 0l4.949 4.95c.39.39.39 1.024 0 1.414l-8.434 8.435a2.002 2.002 0 01-1.416.586H6.322a1 1 0 01-1-1v-4.535c0-.53.211-1.04.586-1.415l8.435-8.435zm-7.02 9.85v3.535h3.534l4.9-4.9-3.535-3.536-4.9 4.9zm6.313-6.315l3.535 3.535 1.414-1.414-3.535-3.535-1.414 1.414z"/></svg><svg viewBox="0 0 24 24" id="filter" xmlns="http://www.w3.org/2000/svg"><path d="M15.6 15a1 1 0 011 1v1H20a1 1 0 110 2h-3.4v1a1 1 0 11-2 0v-4a1 1 0 011-1zM12 17a1 1 0 110 2H4a1 1 0 110-2h8zM8.5 9a1 1 0 011 1v4a1 1 0 11-2 0v-1H4a1 1 0 110-2h3.5v-1a1 1 0 011-1zM20 11a1 1 0 110 2h-8a1 1 0 110-2h8zm-6.2-8.1a1 1 0 011 1V5H20a1 1 0 110 2h-5.2v.5a1 1 0 01-2 0V3.9a1 1 0 011-1zM9.9 5a1 1 0 010 2h-6a1 1 0 010-2h6z"/></svg><svg viewBox="0 0 40 40" id="managers" xmlns="http://www.w3.org/2000/svg"><path d="M32.333 9.6a4.9 4.9 0 11-2.449 9.145l-.192-.111-.218.04-1.616.3.3-1.615.042-.217-.112-.193a4.9 4.9 0 014.245-7.35z"/><mask id="da"><path d="M12 31v-1.125C12 25.525 15.582 22 20 22s8 3.526 8 7.875V31"/></mask><path d="M12 31h1.2v-1.125h-2.4V31H12zm0-1.125h1.2c0-3.669 3.027-6.675 6.8-6.675v-2.4c-5.063 0-9.2 4.045-9.2 9.075H12zM20 22v1.2c3.773 0 6.8 3.006 6.8 6.675h2.4c0-5.03-4.137-9.075-9.2-9.075V22zm8 7.875h-1.2V31h2.4v-1.125H28z" mask="url(#da)"/><path d="M20 25v5M3 29v-.875C3 24.742 5.91 22 9.5 22c1.391 0 2.68.412 3.738 1.113M20 13.6a3.9 3.9 0 110 7.801 3.9 3.9 0 010-7.801z"/><circle cx="3.474" cy="3.474" r="2.874" transform="matrix(-1 0 0 1 12.947 15)"/></svg><svg viewBox="0 0 41 40" id="managers-sidebar" xmlns="http://www.w3.org/2000/svg"><path d="M32.708 9.6a4.9 4.9 0 11-2.449 9.145l-.192-.111-.218.04-1.616.3.3-1.615.042-.217-.112-.193a4.9 4.9 0 014.245-7.35z"/><mask id="ea"><path d="M12.375 31v-1.125c0-4.35 3.582-7.875 8-7.875s8 3.526 8 7.875V31"/></mask><path d="M12.375 31h1.2v-1.125h-2.4V31h1.2zm0-1.125h1.2c0-3.669 3.027-6.675 6.8-6.675v-2.4c-5.063 0-9.2 4.045-9.2 9.075h1.2zm8-7.875v1.2c3.773 0 6.8 3.006 6.8 6.675h2.4c0-5.03-4.137-9.075-9.2-9.075V22zm8 7.875h-1.2V31h2.4v-1.125h-1.2z" mask="url(#ea)"/><path d="M20.375 25v5M3.375 29v-.875c0-3.383 2.91-6.125 6.5-6.125 1.391 0 2.68.412 3.738 1.113M20.375 13.6a3.9 3.9 0 110 7.801 3.9 3.9 0 010-7.801z"/><circle cx="3.474" cy="3.474" r="2.874" transform="matrix(-1 0 0 1 13.322 15)"/></svg><svg viewBox="0 0 40 40" id="pays" xmlns="http://www.w3.org/2000/svg"><path d="M20 31.667c6.443 0 11.667-5.223 11.667-11.666 0-6.444-5.224-11.667-11.667-11.667S8.333 13.557 8.333 20.001c0 6.443 5.224 11.666 11.667 11.666zM16.5 23.5h5.833"/><path d="M16.5 18.833h5.833a2.333 2.333 0 000-4.667h-3.5v11.667"/></svg><svg viewBox="0 0 24 24" id="plus" xmlns="http://www.w3.org/2000/svg"><path d="M12 4a1 1 0 011 1v6h6a1 1 0 110 2h-6v6a1 1 0 11-2 0v-6H5a1 1 0 110-2h6V5a1 1 0 011-1z"/></svg><svg viewBox="0 0 41 46" id="prodavcy" xmlns="http://www.w3.org/2000/svg"><mask id="ha"><path d="M26.903 19.695a1.307 1.307 0 00-1.807 0 2.917 2.917 0 01-4.026 0 1.307 1.307 0 00-1.806 0 2.917 2.917 0 01-4.028 0 1.307 1.307 0 00-1.807 0 2.917 2.917 0 01-4.908-1.752c-.089-.72-.02-1.527.51-2.038L12 12.5c.582-.584.902-.717 1.239-.895a2.334 2.334 0 011.093-.272H26c.38 0 .755.093 1.09.27.337.178.66.313 1.243.897l2.973 3.409c.527.507.599 1.32.51 2.039a2.917 2.917 0 01-4.913 1.745"/></mask><path d="M25.096 19.695l.828.868.002-.002-.83-.866zm-4.026 0l-.83.867.002.001.828-.868zm-1.806 0l.828.868.001-.001-.83-.867zm-4.028 0l-.83.866.002.002.828-.868zm-1.807 0l.829.868.001-.002-.83-.866zm-4.398-3.79l.832.865.038-.037.034-.04-.904-.788zM12 12.5l-.85-.849-.028.03-.027.03.904.789zm2.332-1.167v1.2-1.2zm11.667 0v1.2-1.2zm2.333 1.167l.905-.789-.027-.03-.03-.03-.848.849zm2.973 3.409l-.904.789.034.04.038.035.832-.864zm-4.403 3.786l.83-.867A2.507 2.507 0 0026 18.132v2.4c.027 0 .053.01.073.03l.83-.867zM26 19.332v-1.2c-.646 0-1.267.25-1.734.696l.83.867.83.866a.106.106 0 01.074-.03v-1.2zm-.904.363l-.828-.869c-.32.305-.744.475-1.185.475v2.4a4.117 4.117 0 002.841-1.138l-.828-.868zm-2.013.806v-1.2c-.441 0-.866-.17-1.185-.475l-.828.869-.829.868a4.117 4.117 0 002.842 1.138v-1.2zm-2.013-.806l.83-.868a2.507 2.507 0 00-1.733-.695v2.4c.027 0 .054.011.073.03l.83-.867zm-.903-.363v-1.2c-.646 0-1.266.25-1.733.695l.83.868.83.867a.106.106 0 01.073-.03v-1.2zm-.903.363l-.829-.868c-.319.304-.743.474-1.185.474v2.4a4.116 4.116 0 002.842-1.138l-.828-.868zm-2.014.806v-1.2c-.441 0-.866-.17-1.185-.474l-.829.868-.828.868A4.116 4.116 0 0017.25 21.7v-1.2zm-2.014-.806l.83-.867a2.507 2.507 0 00-1.733-.696v2.4c.027 0 .054.01.074.03l.83-.867zm-.903-.363v-1.2c-.646 0-1.267.25-1.734.696l.83.867.83.866a.107.107 0 01.074-.03v-1.2zm-.904.363l-.828-.869a1.717 1.717 0 01-1.142.475l.03 1.2.031 1.199a4.117 4.117 0 002.738-1.137l-.829-.868zm-1.94.805l-.03-1.2a1.717 1.717 0 01-1.164-.415l-.783.91-.783.908a4.116 4.116 0 002.791.997l-.03-1.2zm-1.977-.706l.783-.909a1.717 1.717 0 01-.583-1.09l-1.19.148-1.192.147a4.117 4.117 0 001.399 2.613l.783-.909zm-.99-1.851l1.19-.148a2.277 2.277 0 01.008-.71c.037-.183.096-.27.143-.315l-.832-.865-.832-.864c-.958.922-.97 2.238-.869 3.049l1.191-.147zm.509-2.038l.904.789 2.97-3.406L12 12.5l-.904-.789-2.97 3.406.905.788zM12 12.5l.848.848a3.35 3.35 0 01.524-.446c.132-.087.214-.123.43-.237l-.563-1.06-.562-1.06c-.352.186-.808.388-1.526 1.106L12 12.5zm1.239-.895l.562 1.06c.164-.087.346-.132.531-.132v-2.4c-.577 0-1.145.141-1.655.412l.562 1.06zm1.093-.272v1.2H26v-2.4H14.333v1.2zm11.667 0v1.2c.185 0 .367.045.53.131l.56-1.06.561-1.062A3.534 3.534 0 0026 10.133v1.2zm1.09.27l-.56 1.061c.212.112.297.15.429.237.117.077.282.203.526.447l.848-.848.849-.849c-.718-.718-1.177-.922-1.53-1.109l-.561 1.061zm1.243.897l-.904.788 2.973 3.41.904-.79.905-.788-2.973-3.409-.905.789zm2.973 3.409l-.832.864c.044.043.104.13.142.315.039.191.043.436.008.711l1.191.149 1.191.148c.101-.813.086-2.134-.868-3.052l-.832.865zm.51 2.039l-1.192-.149a1.716 1.716 0 01-.584 1.09l.782.91.782.91a4.116 4.116 0 001.402-2.613l-1.19-.148zm-.994 1.851l-.782-.91a1.716 1.716 0 01-1.165.415l-.033 1.2-.032 1.199a4.116 4.116 0 002.794-.994l-.782-.91zm-1.98.704l.033-1.2a1.717 1.717 0 01-1.142-.476l-.83.866-.83.867a4.117 4.117 0 002.737 1.143l.032-1.2z" mask="url(#ha)"/><mask id="hb"><path d="M10.833 19.441v11.725a2.333 2.333 0 002.334 2.334h14a2.333 2.333 0 002.333-2.334V19.441"/></mask><path d="M10.833 31.166h-1.2 1.2zm0-11.725h-1.2v11.725h2.4V19.441h-1.2zm0 11.725h-1.2c0 .937.373 1.836 1.035 2.499l.849-.849.848-.848a1.133 1.133 0 01-.332-.802h-1.2zm.684 1.65l-.849.849a3.533 3.533 0 002.499 1.035v-2.4c-.3 0-.59-.12-.802-.332l-.848.848zm1.65.684v1.2h14v-2.4h-14v1.2zm14 0v1.2c.937 0 1.836-.373 2.498-1.035l-.848-.849-.849-.848c-.212.212-.5.332-.801.332v1.2zm1.65-.684l.848.849a3.533 3.533 0 001.035-2.499h-2.4c0 .301-.12.59-.332.802l.849.848zm.683-1.65h1.2V19.441h-2.4v11.725h1.2z" mask="url(#hb)"/><mask id="hc"><path d="M24.833 33.5a4.667 4.667 0 00-9.333 0"/></mask><path d="M24.833 33.5h1.2a5.867 5.867 0 00-1.718-4.149l-.848.849-.849.848a3.466 3.466 0 011.015 2.452h1.2zm-1.366-3.3l.848-.849a5.867 5.867 0 00-4.148-1.718v2.4c.92 0 1.8.365 2.451 1.015l.849-.848zm-3.3-1.367v-1.2a5.867 5.867 0 00-4.149 1.718l.849.849.848.848a3.467 3.467 0 012.452-1.015v-1.2zm-3.3 1.367l-.849-.849A5.867 5.867 0 0014.3 33.5h2.4c0-.92.365-1.802 1.015-2.452l-.848-.848z" mask="url(#hc)"/><path d="M20.167 22.433a2.9 2.9 0 110 5.8 2.9 2.9 0 010-5.8z"/></svg><svg viewBox="0 0 28 28" id="prodavcy-sidebar" xmlns="http://www.w3.org/2000/svg"><mask id="ia"><path d="M20.736 10.696a1.306 1.306 0 00-1.807 0 2.917 2.917 0 01-4.026 0 1.307 1.307 0 00-1.806 0 2.917 2.917 0 01-4.027 0 1.306 1.306 0 00-1.808 0 2.917 2.917 0 01-4.908-1.752c-.089-.72-.02-1.527.51-2.038l2.97-3.405c.583-.584.902-.717 1.24-.895a2.333 2.333 0 011.093-.272h11.666c.38 0 .755.093 1.09.27.337.178.66.313 1.244.897l2.972 3.409c.528.507.599 1.32.51 2.038a2.916 2.916 0 01-4.913 1.746"/></mask><path d="M18.93 10.696l.827.868.002-.002-.83-.866zm-4.027 0l-.83.867.002.001.828-.868zm-1.806 0l.828.868.001-.001-.829-.867zm-4.027 0l-.83.867h.001l.829-.867zm-1.808 0l.829.868.001-.002-.83-.866zm-4.398-3.79l.832.865.038-.037.035-.04-.905-.788zm2.97-3.405l-.85-.849-.028.03-.027.03.904.789zm2.333-1.167v1.2-1.2zm11.666 0v1.2-1.2zm2.334 1.167l.904-.789-.027-.03-.029-.03-.848.849zm2.972 3.409l-.904.788.034.04.038.036.832-.864zm-4.403 3.786l.83-.867a2.507 2.507 0 00-1.733-.696v2.4c.027 0 .054.01.074.03l.83-.867zm-.903-.363v-1.2c-.646 0-1.267.25-1.734.696l.83.867.83.867a.107.107 0 01.074-.03v-1.2zm-.904.363l-.828-.869c-.32.305-.744.475-1.185.475v2.4a4.117 4.117 0 002.841-1.138l-.828-.868zm-2.013.806v-1.2c-.441 0-.866-.17-1.185-.475l-.828.869-.828.868a4.117 4.117 0 002.841 1.138v-1.2zm-2.013-.806l.83-.868A2.506 2.506 0 0014 9.133v2.4c.027 0 .054.011.074.03l.829-.867zM14 10.333v-1.2c-.645 0-1.266.25-1.732.695l.829.868.83.867a.107.107 0 01.073-.03v-1.2zm-.903.363l-.829-.868c-.319.304-.743.474-1.185.474v2.4a4.116 4.116 0 002.842-1.138l-.828-.868zm-2.014.806v-1.2c-.441 0-.866-.17-1.185-.474l-.828.868-.829.868a4.117 4.117 0 002.842 1.138v-1.2zm-2.013-.806l.83-.867a2.507 2.507 0 00-1.734-.696v2.4c.028 0 .054.01.074.03l.83-.867zm-.904-.363v-1.2c-.646 0-1.267.25-1.733.696l.83.867.83.867a.107.107 0 01.073-.03v-1.2zm-.904.363l-.828-.868a1.717 1.717 0 01-1.141.474l.03 1.2.03 1.199a4.117 4.117 0 002.738-1.137l-.829-.868zm-1.939.805l-.03-1.2a1.717 1.717 0 01-1.165-.415l-.783.91-.783.908a4.117 4.117 0 002.792.997l-.031-1.2zm-1.978-.706l.783-.909a1.717 1.717 0 01-.583-1.09l-1.19.148-1.192.147a4.117 4.117 0 001.399 2.613l.783-.909zm-.99-1.851l1.19-.148a2.277 2.277 0 01.008-.71c.037-.183.096-.27.143-.315l-.832-.865-.832-.864c-.958.922-.969 2.238-.869 3.049l1.191-.147zm.51-2.038l.904.789 2.969-3.406-.905-.788-.904-.789-2.97 3.406.905.788zm2.968-3.405l.849.848c.244-.244.408-.369.524-.446.132-.087.214-.123.43-.237l-.563-1.06-.562-1.06c-.352.186-.808.388-1.526 1.106l.848.849zm1.24-.895l.562 1.06c.164-.087.346-.132.531-.132v-2.4c-.576 0-1.145.141-1.655.412l.562 1.06zm1.094-.272v1.2h11.666v-2.4H8.167v1.2zm11.666 0v1.2c.185 0 .367.045.53.131l.56-1.061.561-1.061a3.534 3.534 0 00-1.651-.409v1.2zm1.09.27l-.56 1.061c.212.112.297.15.43.237.116.077.28.203.525.447l.849-.848.848-.849c-.718-.718-1.177-.922-1.53-1.109l-.561 1.061zm1.244.897l-.905.788 2.973 3.41.904-.79.905-.788-2.973-3.409-.904.789zm2.972 3.409l-.832.864c.045.043.105.13.142.315.04.191.043.436.009.711l1.19.148 1.191.149c.101-.813.086-2.134-.868-3.052l-.832.865zm.51 2.038L24.457 8.8a1.716 1.716 0 01-.585 1.09l.782.91.782.91a4.116 4.116 0 001.402-2.613l-1.19-.149zm-.994 1.852l-.782-.91a1.717 1.717 0 01-1.165.415l-.033 1.199-.032 1.2a4.116 4.116 0 002.794-.994l-.782-.91zm-1.98.704l.033-1.2a1.716 1.716 0 01-1.141-.476l-.83.867-.83.866a4.117 4.117 0 002.736 1.143l.032-1.2z" mask="url(#ia)"/><mask id="ib"><path d="M4.667 10.441v11.725A2.333 2.333 0 007 24.5h14a2.333 2.333 0 002.333-2.334V10.441"/></mask><path d="M4.667 22.166h-1.2 1.2zm0-11.725h-1.2v11.725h2.4V10.441h-1.2zm0 11.725h-1.2c0 .938.372 1.836 1.035 2.499l.848-.849.849-.848a1.133 1.133 0 01-.332-.802h-1.2zm.683 1.65l-.848.849A3.533 3.533 0 007 25.7v-2.4c-.3 0-.589-.12-.801-.332l-.849.848zM7 24.5v1.2h14v-2.4H7v1.2zm14 0v1.2c.937 0 1.836-.372 2.498-1.035l-.848-.849-.849-.848c-.212.212-.5.332-.801.332v1.2zm1.65-.684l.848.849a3.533 3.533 0 001.035-2.499h-2.4c0 .301-.12.59-.332.802l.849.848zm.683-1.65h1.2V10.441h-2.4v11.725h1.2z" mask="url(#ib)"/><mask id="ic"><path d="M18.667 24.5a4.667 4.667 0 00-9.334 0"/></mask><path d="M18.667 24.5h1.2a5.867 5.867 0 00-1.719-4.148l-.848.849-.849.848a3.467 3.467 0 011.016 2.452h1.2zM17.3 21.2l.848-.848A5.867 5.867 0 0014 18.634v2.4c.92 0 1.801.365 2.451 1.015l.849-.848zM14 19.835v-1.2a5.867 5.867 0 00-4.148 1.718l.848.849.849.848A3.467 3.467 0 0114 21.034v-1.2zm-3.3 1.367l-.848-.849a5.867 5.867 0 00-1.719 4.149h2.4c0-.92.366-1.802 1.016-2.452l-.849-.848z" mask="url(#ic)"/><path d="M14 13.434a2.9 2.9 0 110 5.801 2.9 2.9 0 010-5.801z"/></svg><svg viewBox="0 0 41 40" id="sdelki" xmlns="http://www.w3.org/2000/svg"><path d="M30.138 22.477c2.062-2.053 3.362-3.771 3.362-6.36 0-1.44-.439-2.846-1.259-4.032A7.145 7.145 0 0028.91 9.47a7.18 7.18 0 00-4.233-.273 7.156 7.156 0 00-3.644 2.162m9.106 11.117a2.76 2.76 0 01-1.952.805 2.772 2.772 0 01-1.953-.805 2.749 2.749 0 01.908 1.97 2.738 2.738 0 01-.807 2.012 2.762 2.762 0 01-2.022.805 2.77 2.77 0 01-1.979-.905 2.743 2.743 0 01.811 1.94 2.732 2.732 0 01-.806 1.943 2.602 2.602 0 01-1.886.758 2.61 2.61 0 01-1.857-.826L11.4 23.235c-1.95-1.94-3.9-4.141-3.9-7.117 0-1.44.44-2.846 1.26-4.033a7.145 7.145 0 013.332-2.612 7.18 7.18 0 014.233-.274 7.157 7.157 0 013.643 2.163.782.782 0 001.064-.002m9.106 11.117a2.582 2.582 0 000-3.66l-2.445-2.435a3.134 3.134 0 00-2.216-.914 3.146 3.146 0 00-2.216.914l-2.223 2.212a2.606 2.606 0 01-3.676 0 2.582 2.582 0 010-3.66l3.67-3.574"/></svg><svg viewBox="0 0 40 40" id="sellers" xmlns="http://www.w3.org/2000/svg"><circle cx="20.315" cy="13.053" r="3.453"/><path d="M17.834 18.863h4.962a2.13 2.13 0 012.13 2.13v4.797a4.61 4.61 0 01-9.221 0v-4.797a2.13 2.13 0 012.13-2.13z"/><circle cx="28.999" cy="13.631" r="2.874"/><path d="M31.403 18.276a2.482 2.482 0 012.228 2.469v4.466A4.632 4.632 0 0129 29.842l-.238-.005a4.611 4.611 0 01-2.79-1.122c.198-.383.358-.788.476-1.21a3.432 3.432 0 005.983-2.294v-4.466c0-.708-.573-1.281-1.28-1.282H26.85c-.079 0-.156.008-.23.022a2.98 2.98 0 00-.493-1.115c.15-.046.308-.078.469-.094l.254-.013h4.3l.253.013z"/><circle cx="3.474" cy="3.474" r="2.874" transform="matrix(-1 0 0 1 15.105 10.158)"/><path d="M9.228 18.276A2.482 2.482 0 007 20.745v4.466a4.632 4.632 0 004.631 4.631l.238-.005a4.611 4.611 0 002.79-1.122 6.33 6.33 0 01-.476-1.21A3.432 3.432 0 018.2 25.21v-4.466c0-.708.573-1.281 1.28-1.282h4.301c.079 0 .156.008.23.022a2.98 2.98 0 01.493-1.115 2.468 2.468 0 00-.469-.094l-.254-.013h-4.3l-.253.013z"/></svg><svg viewBox="0 0 24 24" id="send-btn" xmlns="http://www.w3.org/2000/svg"><path d="M17.4 2a3.7 3.7 0 11-2.574 6.356l-4.646 2.711a3.705 3.705 0 01.001 1.863l4.649 2.709a3.701 3.701 0 11-1.012 1.727L9.17 14.657A3.7 3.7 0 116.6 8.3c1 0 1.906.398 2.571 1.042l4.646-2.711A3.7 3.7 0 0117.4 2zm0 14.6a1.7 1.7 0 00-1.41.75 1.003 1.003 0 01-.104.178A1.7 1.7 0 1017.4 16.6zM6.6 10.3a1.7 1.7 0 000 3.4c.622 0 1.164-.336 1.46-.835l.006-.01.013-.02A1.701 1.701 0 006.6 10.3zM17.4 4a1.7 1.7 0 00-1.477 2.541l.01.014.002.006A1.698 1.698 0 0019.1 5.7 1.7 1.7 0 0017.4 4z"/></svg><svg viewBox="0 0 24 24" id="sort" xmlns="http://www.w3.org/2000/svg"><path fill-rule="evenodd" clip-rule="evenodd" d="M8 4a1 1 0 011 1v11.586l2.293-2.293a1 1 0 011.414 1.414l-4 4a1.002 1.002 0 01-.416.25l-.05.012-.048.011-.021.003c-.056.01-.113.017-.172.017l-.103-.005c-.021-.002-.042-.007-.063-.01l-.031-.005-.035-.008-.061-.016a.993.993 0 01-.414-.249l-4-4a1 1 0 111.414-1.414L7 16.586V5a1 1 0 011-1zm9.02.001a1 1 0 01.106.007c.012.001.023.004.035.006a1 1 0 01.546.279l4 4a1 1 0 01-1.414 1.414L18 7.414V19a1 1 0 11-2 0V7.414l-2.293 2.293a1 1 0 01-1.414-1.414l4-4a1.003 1.003 0 01.45-.259l.049-.013.033-.005A1 1 0 0116.98 4L17 4l.021.001z"/></svg></svg>