<?xml version="1.0" encoding="utf-8"?><svg viewBox="0 0 24 24" xmlns="http://www.w3.org/2000/svg" xmlns:xlink="http://www.w3.org/1999/xlink"><style>:root>svg{display:none}:root>svg:target{display:block}</style><svg viewBox="0 0 24 24" id="filter" xmlns="http://www.w3.org/2000/svg"><path d="M15.6 15a1 1 0 011 1v1H20a1 1 0 110 2h-3.4v1a1 1 0 11-2 0v-4a1 1 0 011-1zM12 17a1 1 0 110 2H4a1 1 0 110-2h8zM8.5 9a1 1 0 011 1v4a1 1 0 11-2 0v-1H4a1 1 0 110-2h3.5v-1a1 1 0 011-1zM20 11a1 1 0 110 2h-8a1 1 0 110-2h8zm-6.2-8.1a1 1 0 011 1V5H20a1 1 0 110 2h-5.2v.5a1 1 0 01-2 0V3.9a1 1 0 011-1zM9.9 5a1 1 0 010 2h-6a1 1 0 010-2h6z"/></svg><svg viewBox="0 0 24 24" id="send-btn" xmlns="http://www.w3.org/2000/svg"><path d="M17.4 2a3.7 3.7 0 11-2.574 6.356l-4.646 2.711a3.705 3.705 0 01.001 1.863l4.649 2.709a3.701 3.701 0 11-1.012 1.727L9.17 14.657A3.7 3.7 0 116.6 8.3c1 0 1.906.398 2.571 1.042l4.646-2.711A3.7 3.7 0 0117.4 2zm0 14.6a1.7 1.7 0 00-1.41.75 1.003 1.003 0 01-.104.178A1.7 1.7 0 1017.4 16.6zM6.6 10.3a1.7 1.7 0 000 3.4c.622 0 1.164-.336 1.46-.835l.006-.01.013-.02A1.701 1.701 0 006.6 10.3zM17.4 4a1.7 1.7 0 00-1.477 2.541l.01.014.002.006A1.698 1.698 0 0019.1 5.7 1.7 1.7 0 0017.4 4z"/></svg><svg viewBox="0 0 24 24" id="sort" xmlns="http://www.w3.org/2000/svg"><path fill-rule="evenodd" clip-rule="evenodd" d="M8 4a1 1 0 011 1v11.586l2.293-2.293a1 1 0 011.414 1.414l-4 4a1.002 1.002 0 01-.416.25l-.05.012-.048.011-.021.003c-.056.01-.113.017-.172.017l-.103-.005c-.021-.002-.042-.007-.063-.01l-.031-.005-.035-.008-.061-.016a.993.993 0 01-.414-.249l-4-4a1 1 0 111.414-1.414L7 16.586V5a1 1 0 011-1zm9.02.001a1 1 0 01.106.007c.012.001.023.004.035.006a1 1 0 01.546.279l4 4a1 1 0 01-1.414 1.414L18 7.414V19a1 1 0 11-2 0V7.414l-2.293 2.293a1 1 0 01-1.414-1.414l4-4a1.003 1.003 0 01.45-.259l.049-.013.033-.005A1 1 0 0116.98 4L17 4l.021.001z"/></svg></svg>