<svg width="24" height="24" viewBox="0 0 24 24" fill="none" xmlns="http://www.w3.org/2000/svg">
<path d="M20.4004 2C21.2838 2.00021 21.9998 2.7163 22 3.59961V20.4004C21.9998 21.2838 21.2838 21.9998 20.4004 22H8C7.44772 22 7 21.5523 7 21C7 20.4477 7.44772 20 8 20H20V4H4V16C4 16.5523 3.55228 17 3 17C2.44772 17 2 16.5523 2 16V3.59961C2.00021 2.71626 2.71626 2.00021 3.59961 2H20.4004ZM12.165 11.0156C12.1754 11.0174 12.1859 11.0184 12.1963 11.0205C12.2078 11.0228 12.2191 11.0256 12.2305 11.0283C12.2511 11.0332 12.2717 11.0378 12.292 11.0439C12.3407 11.0588 12.3874 11.0778 12.4326 11.0996C12.4468 11.1064 12.4607 11.1136 12.4746 11.1211C12.6201 11.1998 12.7442 11.3127 12.835 11.4502C12.8599 11.4879 12.8811 11.5273 12.9004 11.5674C12.9222 11.6126 12.9412 11.6593 12.9561 11.708C12.9622 11.7283 12.9668 11.7489 12.9717 11.7695C12.9892 11.8436 13 11.9206 13 12V16C13 16.5523 12.5523 17 12 17C11.4477 17 11 16.5523 11 16V14.4141L4.20703 21.207C3.81651 21.5976 3.18349 21.5976 2.79297 21.207C2.40244 20.8165 2.40244 20.1835 2.79297 19.793L9.58594 13H8C7.44772 13 7 12.5523 7 12C7 11.4477 7.44772 11 8 11H12C12.0563 11 12.1112 11.0067 12.165 11.0156Z" fill="#303030"/>
</svg>
