<svg width="41" height="40" viewBox="0 0 41 40" fill="none" xmlns="http://www.w3.org/2000/svg">
<path d="M32.7084 9.59961C35.4146 9.59961 37.6088 11.7938 37.6088 14.5C37.6088 17.2062 35.4146 19.4004 32.7084 19.4004C31.815 19.4004 30.9792 19.1616 30.2592 18.7451L30.0668 18.6338L29.849 18.6748L28.2328 18.9746L28.5336 17.3594L28.5746 17.1416L28.4633 16.9492C28.0468 16.2292 27.808 15.3933 27.808 14.5C27.808 11.7938 30.0022 9.59961 32.7084 9.59961Z" stroke="#7E84A3" stroke-width="1.2"/>
<mask id="path-2-inside-1_2001_7962" fill="white">
<path d="M12.375 31V29.875C12.375 25.5258 15.9567 22 20.375 22C24.7933 22 28.375 25.5258 28.375 29.875V31"/>
</mask>
<path d="M12.375 31H13.575V29.875H12.375H11.175V31H12.375ZM12.375 29.875H13.575C13.575 26.2062 16.6016 23.2 20.375 23.2V22V20.8C15.3119 20.8 11.175 24.8453 11.175 29.875H12.375ZM20.375 22V23.2C24.1484 23.2 27.175 26.2062 27.175 29.875H28.375H29.575C29.575 24.8453 25.4381 20.8 20.375 20.8V22ZM28.375 29.875H27.175V31H28.375H29.575V29.875H28.375Z" fill="#7E84A3" mask="url(#path-2-inside-1_2001_7962)"/>
<path d="M20.375 25V30" stroke="#7E84A3" stroke-width="1.2"/>
<path d="M3.375 29V28.125C3.375 24.7422 6.28515 22 9.875 22C11.2664 22 12.5557 22.412 13.613 23.1135" stroke="#7E84A3" stroke-width="1.2"/>
<path d="M20.375 13.5996C22.5289 13.5996 24.2754 15.3461 24.2754 17.5C24.2754 19.6539 22.5289 21.4004 20.375 21.4004C18.2211 21.4004 16.4746 19.6539 16.4746 17.5C16.4746 15.3461 18.2211 13.5996 20.375 13.5996Z" stroke="#7E84A3" stroke-width="1.2"/>
<circle cx="3.47368" cy="3.47368" r="2.87368" transform="matrix(-1 0 0 1 13.3224 15)" stroke="#7E84A3" stroke-width="1.2"/>
</svg>
