<svg width="20" height="20" viewBox="0 0 20 20" fill="none" xmlns="http://www.w3.org/2000/svg">
<g clip-path="url(#clip0_257_9332)">
<path d="M10 0.666992C15.1544 0.667168 19.3338 4.8456 19.334 10C19.3338 15.1544 15.1544 19.3338 10 19.334C8.43723 19.3339 6.96199 18.9473 5.66602 18.2666L2.2666 18.9004C1.9428 18.9606 1.60998 18.8567 1.37695 18.624C1.14402 18.3911 1.04051 18.0582 1.10059 17.7344L1.7334 14.334C1.05284 13.0381 0.667046 11.5626 0.666992 10C0.667168 4.8456 4.8456 0.667168 10 0.666992ZM10 2.66699C5.95017 2.66717 2.66717 5.95017 2.66699 10C2.66705 11.3371 3.02421 12.5885 3.64746 13.666C3.76674 13.8724 3.8082 14.1152 3.76465 14.3496L3.33301 16.666L5.65039 16.2354C5.88488 16.1918 6.1275 16.2341 6.33398 16.3535C7.41145 16.9767 8.66294 17.3339 10 17.334C14.0498 17.3338 17.3338 14.0498 17.334 10C17.3338 5.95017 14.0498 2.66717 10 2.66699Z" fill="#303030"/>
</g>
<defs>
<clipPath id="clip0_257_9332">
<rect width="20" height="20" fill="white"/>
</clipPath>
</defs>
</svg>
