<svg width="20" height="20" viewBox="0 0 20 20" fill="none" xmlns="http://www.w3.org/2000/svg">
<g clip-path="url(#clip0_160_8876)">
<path d="M10 0.666992C15.1544 0.667168 19.3338 4.8456 19.334 10C19.3338 15.1544 15.1544 19.3338 10 19.334C4.8456 19.3338 0.667168 15.1544 0.666992 10C0.667168 4.8456 4.8456 0.667168 10 0.666992ZM10 2.66699C5.95017 2.66717 2.66717 5.95017 2.66699 10C2.66717 14.0498 5.95017 17.3338 10 17.334C14.0498 17.3338 17.3338 14.0498 17.334 10C17.3338 5.95017 14.0498 2.66717 10 2.66699ZM6.93652 6.93555C7.32702 6.54533 7.96014 6.54525 8.35059 6.93555L10 8.58496L11.6504 6.93555C12.0409 6.54535 12.674 6.54532 13.0645 6.93555C13.4549 7.32598 13.4547 7.95906 13.0645 8.34961L11.4141 9.99902L13.0645 11.6494C13.4549 12.0399 13.4547 12.6729 13.0645 13.0635C12.6739 13.454 12.0409 13.454 11.6504 13.0635L10 11.4131L8.35059 13.0635C7.96006 13.454 7.32705 13.454 6.93652 13.0635C6.54621 12.6729 6.54607 12.0399 6.93652 11.6494L8.58594 9.99902L6.93652 8.34961C6.54614 7.95907 6.54605 7.32602 6.93652 6.93555Z" fill="#7E84A3"/>
</g>
<defs>
<clipPath id="clip0_160_8876">
<rect width="20" height="20" fill="white"/>
</clipPath>
</defs>
</svg>
