<svg width="20" height="20" viewBox="0 0 20 20" fill="none" xmlns="http://www.w3.org/2000/svg">
<path d="M8.33301 1.5C12.1068 1.5 15.1668 4.55921 15.167 8.33301C15.167 9.85929 14.666 11.2688 13.8203 12.4062L18.207 16.793C18.5975 17.1835 18.5976 17.8165 18.207 18.207C17.8165 18.5975 17.1835 18.5976 16.793 18.207L12.4062 13.8203C11.2688 14.666 9.85929 15.167 8.33301 15.167C4.55921 15.1668 1.5 12.1068 1.5 8.33301C1.50018 4.55932 4.55932 1.50018 8.33301 1.5ZM8.33301 3.5C5.66389 3.50018 3.50018 5.66389 3.5 8.33301C3.5 11.0023 5.66378 13.1668 8.33301 13.167C11.0024 13.167 13.167 11.0024 13.167 8.33301C13.1668 5.66378 11.0023 3.5 8.33301 3.5Z" fill="#8F8F8F"/>
</svg>
