<svg width="20" height="20" viewBox="0 0 20 20" fill="none" xmlns="http://www.w3.org/2000/svg">
<path d="M15.833 11.5C16.3853 11.5 16.833 11.9477 16.833 12.5V15.9189L17.626 15.126C18.0164 14.7357 18.6495 14.7358 19.04 15.126C19.4305 15.5164 19.4304 16.1495 19.04 16.54L16.54 19.04C16.5163 19.0638 16.4909 19.0861 16.4648 19.1074C16.4278 19.1377 16.3886 19.1643 16.3486 19.1885C16.2788 19.2306 16.2036 19.2649 16.124 19.2891C16.107 19.2942 16.0895 19.2985 16.0723 19.3027C16.0581 19.3062 16.0437 19.3106 16.0293 19.3135C15.8995 19.3393 15.7655 19.3395 15.6357 19.3135C15.6213 19.3106 15.607 19.3062 15.5928 19.3027C15.5756 19.2985 15.558 19.2942 15.541 19.2891C15.4615 19.2648 15.3862 19.2307 15.3164 19.1885C15.2765 19.1643 15.2372 19.1377 15.2002 19.1074C15.1744 19.0863 15.1495 19.0636 15.126 19.04L12.626 16.54C12.2358 16.1495 12.2357 15.5164 12.626 15.126C13.0164 14.7357 13.6495 14.7358 14.04 15.126L14.833 15.9189V12.5C14.833 11.9478 15.2809 11.5002 15.833 11.5ZM17 1.5C17.8285 1.5 18.5 2.17161 18.5 3V10C18.5 10.5523 18.0523 11 17.5 11H11V17.5C11 18.0523 10.5523 18.5 10 18.5H3C2.17161 18.5 1.5 17.8285 1.5 17V3C1.5 2.17157 2.17157 1.5 3 1.5H17ZM3.5 16.5H9V14.75H3.5V16.5ZM3.5 12.75H9V11H3.5V12.75ZM3.5 9H9V7.25H3.5V9ZM11 9H16.5V7.25H11V9ZM3.5 5.25H9V3.5H3.5V5.25ZM11 5.25H16.5V3.5H11V5.25Z" fill="#7E84A3"/>
</svg>
