<svg width="40" height="40" viewBox="0 0 40 40" fill="none" xmlns="http://www.w3.org/2000/svg">
<path d="M14.4167 31.3333C17.9605 31.3333 20.8333 28.4605 20.8333 24.9167C20.8333 21.3728 17.9605 18.5 14.4167 18.5C10.8728 18.5 8 21.3728 8 24.9167C8 26.0854 8.31247 27.1812 8.85843 28.125L8.32083 31.0125L11.2083 30.4749C12.1521 31.0209 13.2479 31.3333 14.4167 31.3333Z" stroke="#303030" stroke-width="1.2" stroke-linecap="round" stroke-linejoin="round"/>
<path d="M23.4963 26.5474C24.6353 26.3639 25.7052 25.9743 26.6668 25.418L30.8668 26.2L30.0848 22C30.8789 20.6272 31.3335 19.0333 31.3335 17.3333C31.3335 12.1787 27.1548 8 22.0001 8C17.3015 8 13.4138 11.472 12.7627 15.9903" stroke="#303030" stroke-width="1.2" stroke-linecap="round" stroke-linejoin="round"/>
</svg>
