<svg width="41" height="40" viewBox="0 0 41 40" fill="none" xmlns="http://www.w3.org/2000/svg">
<circle cx="20.375" cy="20" r="6" fill="#FFDD00"/>
<path d="M14.7917 31.3333C18.3355 31.3333 21.2083 28.4605 21.2083 24.9167C21.2083 21.3728 18.3355 18.5 14.7917 18.5C11.2478 18.5 8.375 21.3728 8.375 24.9167C8.375 26.0854 8.68747 27.1812 9.23343 28.125L8.69583 31.0125L11.5833 30.4749C12.5271 31.0209 13.6229 31.3333 14.7917 31.3333Z" stroke="#303030" stroke-width="1.2" stroke-linecap="round" stroke-linejoin="round"/>
<path d="M23.8713 26.5474C25.0103 26.3639 26.0802 25.9743 27.0418 25.418L31.2418 26.2L30.4598 22C31.2539 20.6272 31.7085 19.0333 31.7085 17.3333C31.7085 12.1787 27.5298 8 22.3751 8C17.6765 8 13.7888 11.472 13.1377 15.9903" stroke="#303030" stroke-width="1.2" stroke-linecap="round" stroke-linejoin="round"/>
</svg>
