<svg width="41" height="40" viewBox="0 0 41 40" fill="none" xmlns="http://www.w3.org/2000/svg">
<circle cx="20" cy="20" r="6" fill="#FFDD00"/>
<path d="M14.1666 27H18.25H22.3333" stroke="#303030" stroke-width="1.2" stroke-linecap="round"/>
<path d="M14.1666 22.3333H14.75H15.3333" stroke="#303030" stroke-width="1.2" stroke-linecap="round"/>
<path d="M14.1666 17.6667H15.9166H17.6666" stroke="#303030" stroke-width="1.2" stroke-linecap="round"/>
<path d="M14.1666 8.33334H25.25L30.5 13.5833V28.1667" stroke="#303030" stroke-width="1.2" stroke-linecap="round"/>
<path d="M9.5 29.9167V13.5833C9.5 12.6168 10.2835 11.8333 11.25 11.8333H22.6267C22.8124 11.8333 22.9904 11.9071 23.1216 12.0384L26.795 15.7116C26.9263 15.8429 27 16.021 27 16.2066V29.9167C27 30.8831 26.2165 31.6667 25.25 31.6667H11.25C10.2835 31.6667 9.5 30.8831 9.5 29.9167Z" stroke="#303030" stroke-width="1.2" stroke-linecap="round"/>
<path d="M22.3334 15.8V12.2458C22.3334 12.018 22.5181 11.8333 22.7459 11.8333C22.8552 11.8333 22.9601 11.8768 23.0376 11.9542L26.8792 15.7959C26.9566 15.8732 27 15.9781 27 16.0875C27 16.3153 26.8154 16.5 26.5875 16.5H23.0334C22.6467 16.5 22.3334 16.1866 22.3334 15.8Z" stroke="#303030" stroke-width="1.2" stroke-linecap="round"/>
</svg>
