<svg width="41" height="46" viewBox="0 0 41 46" fill="none" xmlns="http://www.w3.org/2000/svg">
<circle cx="20.375" cy="23" r="6" fill="#FFDD00"/>
<mask id="path-2-inside-1_205_11837" fill="white">
<path d="M26.903 19.6947C26.6598 19.4619 26.3361 19.3319 25.9995 19.3319C25.6628 19.3319 25.3391 19.4619 25.0959 19.6947C24.5534 20.2121 23.8325 20.5008 23.0828 20.5008C22.3331 20.5008 21.6122 20.2121 21.0697 19.6947C20.8266 19.4622 20.5031 19.3324 20.1667 19.3324C19.8303 19.3324 19.5069 19.4622 19.2637 19.6947C18.7212 20.2125 18 20.5013 17.25 20.5013C16.5001 20.5013 15.7789 20.2125 15.2364 19.6947C14.9932 19.4619 14.6695 19.3319 14.3328 19.3319C13.9961 19.3319 13.6724 19.4619 13.4292 19.6947C12.9052 20.1947 12.2139 20.4819 11.4898 20.5003C10.7657 20.5187 10.0606 20.2671 9.51189 19.7943C8.96314 19.3215 8.60993 18.6615 8.52102 17.9426C8.4321 17.2238 8.50003 16.4163 9.03087 15.9053L12 12.4997C12.5834 11.9163 12.9031 11.7834 13.2399 11.6048C13.5767 11.4263 13.9522 11.3329 14.3334 11.333H26C26.3801 11.3329 26.7545 11.4256 27.0906 11.6031C27.4267 11.7806 27.75 11.9163 28.3334 12.4997L31.306 15.9088C31.8334 16.4163 31.9047 17.2283 31.8152 17.9475C31.7257 18.6667 31.3717 19.3269 30.8221 19.7993C30.2724 20.2717 29.5666 20.5226 28.8421 20.5031C28.1176 20.4835 27.4264 20.1949 26.903 19.6935"/>
</mask>
<path d="M25.0959 19.6947L25.9241 20.563L25.9257 20.5615L25.0959 19.6947ZM21.0697 19.6947L20.2404 20.562L20.2415 20.563L21.0697 19.6947ZM19.2637 19.6947L20.0922 20.5628L20.093 20.562L19.2637 19.6947ZM15.2364 19.6947L14.4065 20.5615L14.4079 20.5628L15.2364 19.6947ZM13.4292 19.6947L14.2576 20.5628L14.259 20.5615L13.4292 19.6947ZM9.03087 15.9053L9.86309 16.7699L9.9009 16.7335L9.93538 16.6939L9.03087 15.9053ZM12 12.4997L11.1515 11.6511L11.1225 11.6802L11.0955 11.7111L12 12.4997ZM14.3334 11.333L14.3331 12.533H14.3334V11.333ZM26 11.333V12.533L26.0005 12.533L26 11.333ZM28.3334 12.4997L29.2378 11.711L29.2109 11.6801L29.1819 11.6511L28.3334 12.4997ZM31.306 15.9088L30.4016 16.6975L30.4361 16.7371L30.4739 16.7735L31.306 15.9088ZM26.903 19.6947L27.7329 18.8278C27.2663 18.3812 26.6453 18.1319 25.9995 18.1319V19.3319V20.5319C26.0269 20.5319 26.0534 20.5425 26.0732 20.5615L26.903 19.6947ZM25.9995 19.3319V18.1319C25.3536 18.1319 24.7326 18.3812 24.266 18.8278L25.0959 19.6947L25.9257 20.5615C25.9455 20.5425 25.972 20.5319 25.9995 20.5319V19.3319ZM25.0959 19.6947L24.2676 18.8263C23.9483 19.1309 23.524 19.3008 23.0828 19.3008V20.5008V21.7008C24.1409 21.7008 25.1584 21.2933 25.9241 20.563L25.0959 19.6947ZM23.0828 20.5008V19.3008C22.6415 19.3008 22.2172 19.1309 21.8979 18.8263L21.0697 19.6947L20.2415 20.563C21.0071 21.2933 22.0247 21.7008 23.0828 21.7008V20.5008ZM21.0697 19.6947L21.899 18.8273C21.4325 18.3813 20.8121 18.1324 20.1667 18.1324V19.3324V20.5324C20.1942 20.5324 20.2206 20.543 20.2404 20.562L21.0697 19.6947ZM20.1667 19.3324V18.1324C19.5214 18.1324 18.9009 18.3813 18.4344 18.8273L19.2637 19.6947L20.093 20.562C20.1128 20.543 20.1392 20.5324 20.1667 20.5324V19.3324ZM19.2637 19.6947L18.4352 18.8266C18.1159 19.1313 17.6914 19.3013 17.25 19.3013V20.5013V21.7013C18.3086 21.7013 19.3264 21.2936 20.0922 20.5628L19.2637 19.6947ZM17.25 20.5013V19.3013C16.8086 19.3013 16.3842 19.1313 16.0648 18.8266L15.2364 19.6947L14.4079 20.5628C15.1737 21.2936 16.1915 21.7013 17.25 21.7013V20.5013ZM15.2364 19.6947L16.0662 18.8278C15.5996 18.3812 14.9787 18.1319 14.3328 18.1319V19.3319V20.5319C14.3603 20.5319 14.3867 20.5425 14.4065 20.5615L15.2364 19.6947ZM14.3328 19.3319V18.1319C13.6869 18.1319 13.0659 18.3812 12.5994 18.8278L13.4292 19.6947L14.259 20.5615C14.2789 20.5425 14.3053 20.5319 14.3328 20.5319V19.3319ZM13.4292 19.6947L12.6008 18.8265C12.2923 19.1208 11.8854 19.2899 11.4593 19.3007L11.4898 20.5003L11.5203 21.6999C12.5423 21.6739 13.518 21.2686 14.2576 20.5628L13.4292 19.6947ZM11.4898 20.5003L11.4593 19.3007C11.0331 19.3115 10.6181 19.1634 10.2951 18.8852L9.51189 19.7943L8.72864 20.7034C9.50317 21.3707 10.4983 21.7259 11.5203 21.6999L11.4898 20.5003ZM9.51189 19.7943L10.2951 18.8852C9.97216 18.6069 9.76428 18.2184 9.71194 17.7953L8.52102 17.9426L7.33009 18.0899C7.45559 19.1045 7.95412 20.0361 8.72864 20.7034L9.51189 19.7943ZM8.52102 17.9426L9.71194 17.7953C9.67759 17.5176 9.68109 17.2741 9.71953 17.0849C9.75658 16.9025 9.81571 16.8155 9.86309 16.7699L9.03087 15.9053L8.19865 15.0408C7.24071 15.9629 7.22983 17.2793 7.33009 18.0899L8.52102 17.9426ZM9.03087 15.9053L9.93538 16.6939L12.9045 13.2883L12 12.4997L11.0955 11.7111L8.12636 15.1168L9.03087 15.9053ZM12 12.4997L12.8486 13.3482C13.0929 13.1039 13.2564 12.9791 13.3727 12.9025C13.5049 12.8154 13.5871 12.779 13.8021 12.665L13.2399 11.6048L12.6778 10.5446C12.3262 10.7311 11.8697 10.9329 11.1515 11.6511L12 12.4997ZM13.2399 11.6048L13.8021 12.665C13.9656 12.5783 14.148 12.533 14.3331 12.533L14.3334 11.333L14.3336 10.133C13.7563 10.1329 13.1878 10.2742 12.6778 10.5446L13.2399 11.6048ZM14.3334 11.333V12.533H26V11.333V10.133H14.3334V11.333ZM26 11.333L26.0005 12.533C26.1851 12.5329 26.367 12.578 26.5302 12.6642L27.0906 11.6031L27.651 10.542C27.1421 10.2732 26.5751 10.1328 25.9996 10.133L26 11.333ZM27.0906 11.6031L26.5302 12.6642C26.7422 12.7761 26.8267 12.814 26.9588 12.9011C27.0762 12.9784 27.2407 13.1041 27.4848 13.3482L28.3334 12.4997L29.1819 11.6511C28.4638 10.9331 28.0045 10.7286 27.651 10.542L27.0906 11.6031ZM28.3334 12.4997L27.4289 13.2883L30.4016 16.6975L31.306 15.9088L32.2105 15.1202L29.2378 11.711L28.3334 12.4997ZM31.306 15.9088L30.4739 16.7735C30.5185 16.8163 30.5783 16.9029 30.616 17.0882C30.6549 17.2791 30.6586 17.5239 30.6244 17.7994L31.8152 17.9475L33.006 18.0957C33.1072 17.2826 33.0922 15.9624 32.1382 15.0442L31.306 15.9088ZM31.8152 17.9475L30.6244 17.7994C30.5717 18.2227 30.3633 18.6112 30.0399 18.8893L30.8221 19.7993L31.6043 20.7093C32.38 20.0425 32.8797 19.1108 33.006 18.0957L31.8152 17.9475ZM30.8221 19.7993L30.0399 18.8893C29.7164 19.1674 29.3009 19.315 28.8745 19.3035L28.8421 20.5031L28.8097 21.7026C29.8323 21.7302 30.8285 21.3761 31.6043 20.7093L30.8221 19.7993ZM28.8421 20.5031L28.8745 19.3035C28.4481 19.292 28.0412 19.1221 27.7332 18.827L26.903 19.6935L26.0729 20.56C26.8115 21.2677 27.7872 21.675 28.8097 21.7026L28.8421 20.5031Z" fill="#303030" mask="url(#path-2-inside-1_205_11837)"/>
<mask id="path-4-inside-2_205_11837" fill="white">
<path d="M10.8334 19.4414V31.1664C10.8334 31.7852 11.0792 32.3787 11.5168 32.8163C11.9544 33.2539 12.5479 33.4997 13.1667 33.4997H27.1667C27.7855 33.4997 28.379 33.2539 28.8166 32.8163C29.2542 32.3787 29.5 31.7852 29.5 31.1664V19.4414"/>
</mask>
<path d="M10.8334 31.1664H9.63337H10.8334ZM10.8334 19.4414H9.63337V31.1664H10.8334H12.0334V19.4414H10.8334ZM10.8334 31.1664H9.63337C9.63337 32.1035 10.0056 33.0022 10.6683 33.6648L11.5168 32.8163L12.3653 31.9678C12.1528 31.7553 12.0334 31.467 12.0334 31.1664H10.8334ZM11.5168 32.8163L10.6683 33.6648C11.3309 34.3275 12.2296 34.6997 13.1667 34.6997V33.4997V32.2997C12.8661 32.2997 12.5779 32.1803 12.3653 31.9678L11.5168 32.8163ZM13.1667 33.4997V34.6997H27.1667V33.4997V32.2997H13.1667V33.4997ZM27.1667 33.4997V34.6997C28.1038 34.6997 29.0025 34.3275 29.6651 33.6648L28.8166 32.8163L27.9681 31.9678C27.7556 32.1803 27.4673 32.2997 27.1667 32.2997V33.4997ZM28.8166 32.8163L29.6651 33.6648C30.3278 33.0022 30.7 32.1035 30.7 31.1664H29.5H28.3C28.3 31.467 28.1806 31.7553 27.9681 31.9678L28.8166 32.8163ZM29.5 31.1664H30.7V19.4414H29.5H28.3V31.1664H29.5Z" fill="#303030" mask="url(#path-4-inside-2_205_11837)"/>
<mask id="path-6-inside-3_205_11837" fill="white">
<path d="M24.8335 33.4997C24.8335 32.262 24.3418 31.075 23.4666 30.1998C22.5915 29.3247 21.4045 28.833 20.1668 28.833C18.9291 28.833 17.7421 29.3247 16.867 30.1998C15.9918 31.075 15.5001 32.262 15.5001 33.4997"/>
</mask>
<path d="M24.8335 33.4997H26.0335C26.0335 31.9437 25.4154 30.4515 24.3151 29.3513L23.4666 30.1998L22.6181 31.0484C23.2682 31.6985 23.6335 32.5803 23.6335 33.4997H24.8335ZM23.4666 30.1998L24.3151 29.3513C23.2149 28.2511 21.7227 27.633 20.1668 27.633V28.833V30.033C21.0862 30.033 21.968 30.3982 22.6181 31.0484L23.4666 30.1998ZM20.1668 28.833V27.633C18.6109 27.633 17.1186 28.2511 16.0184 29.3513L16.867 30.1998L17.7155 31.0484C18.3656 30.3982 19.2474 30.033 20.1668 30.033V28.833ZM16.867 30.1998L16.0184 29.3513C14.9182 30.4515 14.3001 31.9437 14.3001 33.4997H15.5001H16.7001C16.7001 32.5803 17.0654 31.6985 17.7155 31.0484L16.867 30.1998Z" fill="#303030" mask="url(#path-6-inside-3_205_11837)"/>
<path d="M20.1667 22.4326C21.7684 22.4326 23.0671 23.7314 23.0671 25.333C23.0671 26.9346 21.7684 28.2334 20.1667 28.2334C18.5651 28.2334 17.2664 26.9346 17.2664 25.333C17.2664 23.7314 18.5651 22.4326 20.1667 22.4326Z" stroke="#303030" stroke-width="1.2"/>
</svg>
