<svg width="40" height="40" viewBox="0 0 40 40" fill="none" xmlns="http://www.w3.org/2000/svg">
<circle cx="20.3154" cy="13.0526" r="3.45263" stroke="#7E84A3" stroke-width="1.2"/>
<path d="M17.8345 18.8633H22.7964C23.9724 18.8633 24.9263 19.8172 24.9263 20.9932V25.79C24.9262 28.3362 22.862 30.4002 20.3159 30.4004C17.7696 30.4004 15.7046 28.3363 15.7046 25.79V20.9932C15.7046 19.8172 16.6585 18.8633 17.8345 18.8633Z" stroke="#7E84A3" stroke-width="1.2"/>
<circle cx="28.9993" cy="13.6319" r="2.87368" stroke="#7E84A3" stroke-width="1.2"/>
<path d="M31.4033 18.2764C32.6546 18.4034 33.6309 19.4604 33.6309 20.7451V25.2109C33.6309 27.7687 31.5577 29.8425 29 29.8428L28.7617 29.8369C27.6971 29.783 26.7277 29.3688 25.9717 28.7148C26.1698 28.3324 26.3303 27.9277 26.4482 27.5049C27.0764 28.2031 27.9869 28.6426 29 28.6426C30.8949 28.6423 32.4316 27.1059 32.4316 25.2109V20.7451C32.4316 20.0377 31.8577 19.4642 31.1504 19.4639H26.8496C26.771 19.4639 26.6938 19.4718 26.6191 19.4854C26.5331 19.0761 26.3612 18.6993 26.127 18.3701C26.2775 18.3244 26.4345 18.2927 26.5957 18.2764L26.8496 18.2637H31.1504L31.4033 18.2764Z" fill="#7E84A3"/>
<circle cx="3.47368" cy="3.47368" r="2.87368" transform="matrix(-1 0 0 1 15.1053 10.1582)" stroke="#7E84A3" stroke-width="1.2"/>
<path d="M9.22766 18.2764C7.97642 18.4034 7.00012 19.4604 7.00012 20.7451V25.2109C7.00012 27.7687 9.07331 29.8425 11.631 29.8428L11.8693 29.8369C12.9339 29.783 13.9033 29.3688 14.6593 28.7148C14.4612 28.3324 14.3007 27.9277 14.1827 27.5049C13.5546 28.2031 12.6441 28.6426 11.631 28.6426C9.73605 28.6423 8.19934 27.1059 8.19934 25.2109V20.7451C8.19934 20.0377 8.77328 19.4642 9.48059 19.4639H13.7814C13.86 19.4639 13.9371 19.4718 14.0118 19.4854C14.0979 19.0761 14.2697 18.6993 14.504 18.3701C14.3535 18.3244 14.1965 18.2927 14.0353 18.2764L13.7814 18.2637H9.48059L9.22766 18.2764Z" fill="#7E84A3"/>
</svg>
