<svg width="41" height="40" viewBox="0 0 41 40" fill="none" xmlns="http://www.w3.org/2000/svg">
<circle cx="20.125" cy="20" r="6" fill="#FFDD00"/>
<circle cx="20.4404" cy="13.0526" r="3.45263" stroke="#303030" stroke-width="1.2"/>
<path d="M17.9595 18.8628H22.9214C24.0974 18.8628 25.0513 19.8167 25.0513 20.9927V25.7896C25.0512 28.3357 22.987 30.3997 20.4409 30.3999C17.8946 30.3999 15.8296 28.3359 15.8296 25.7896V20.9927C15.8296 19.8167 16.7835 18.8628 17.9595 18.8628Z" stroke="#303030" stroke-width="1.2"/>
<circle cx="29.1243" cy="13.6313" r="2.87368" stroke="#303030" stroke-width="1.2"/>
<path d="M31.5283 18.276C32.7796 18.403 33.7559 19.46 33.7559 20.7448V25.2106C33.7559 27.7683 31.6827 29.8421 29.125 29.8424L28.8867 29.8365C27.8221 29.7827 26.8527 29.3684 26.0967 28.7145C26.2948 28.332 26.4553 27.9273 26.5732 27.5045C27.2014 28.2027 28.1119 28.6422 29.125 28.6422C31.0199 28.6419 32.5566 27.1056 32.5566 25.2106V20.7448C32.5566 20.0374 31.9827 19.4638 31.2754 19.4635H26.9746C26.896 19.4635 26.8188 19.4714 26.7441 19.485C26.6581 19.0757 26.4862 18.699 26.252 18.3698C26.4025 18.324 26.5595 18.2924 26.7207 18.276L26.9746 18.2633H31.2754L31.5283 18.276Z" fill="#303030"/>
<circle cx="3.47368" cy="3.47368" r="2.87368" transform="matrix(-1 0 0 1 15.2303 10.1576)" stroke="#303030" stroke-width="1.2"/>
<path d="M9.35266 18.276C8.10142 18.403 7.12512 19.46 7.12512 20.7448V25.2106C7.12512 27.7683 9.19831 29.8421 11.756 29.8424L11.9943 29.8365C13.0589 29.7827 14.0283 29.3684 14.7843 28.7145C14.5862 28.332 14.4257 27.9273 14.3077 27.5045C13.6796 28.2027 12.7691 28.6422 11.756 28.6422C9.86105 28.6419 8.32434 27.1056 8.32434 25.2106V20.7448C8.32434 20.0374 8.89828 19.4638 9.60559 19.4635H13.9064C13.985 19.4635 14.0621 19.4714 14.1368 19.485C14.2229 19.0757 14.3947 18.699 14.629 18.3698C14.4785 18.324 14.3215 18.2924 14.1603 18.276L13.9064 18.2633H9.60559L9.35266 18.276Z" fill="#303030"/>
</svg>
