<svg width="85" height="96" viewBox="0 0 85 96" fill="none" xmlns="http://www.w3.org/2000/svg">
<path fill-rule="evenodd" clip-rule="evenodd" d="M36.3951 0.00163197C37.9682 -0.011493 39.6126 0.056007 40.0514 0.151632C40.4901 0.247257 41.3545 0.423507 41.9732 0.547257C42.592 0.669132 43.6045 0.939132 44.2232 1.14538C44.842 1.35351 45.9389 1.81663 46.6607 2.17851C47.3826 2.53851 48.4795 3.19663 49.0982 3.63913C49.717 4.08351 50.6132 4.85413 51.0914 5.35288C51.5695 5.85163 52.2764 6.68226 52.6626 7.19788C53.047 7.71351 53.6807 8.76913 54.067 9.54163C54.4551 10.316 54.9989 11.666 55.2745 12.5416C55.552 13.4173 55.9082 14.9791 56.0657 16.0104C56.2757 17.3885 56.3264 18.731 56.2551 21.0729C56.1895 23.2685 56.0095 25.1079 55.6814 26.9791C55.4207 28.4735 54.9989 30.4573 54.7476 31.3854C54.4964 32.3135 53.977 33.9166 53.5926 34.9479C53.2101 35.9791 52.6195 37.3723 52.2839 38.0416C51.9482 38.711 51.1682 40.0198 50.5495 40.9479C49.8839 41.9473 48.7757 43.2485 47.8364 44.1354C46.9626 44.9604 45.7926 45.9091 45.2357 46.2429C44.6789 46.5785 43.717 47.0585 43.0982 47.3116C42.4795 47.5648 41.4239 47.9248 40.7545 48.1104C39.8076 48.3729 38.8457 48.4479 36.442 48.4479C34.0701 48.4479 33.0632 48.371 32.1295 48.116C31.4601 47.9341 30.1514 47.4204 29.2232 46.9741C28.2951 46.5279 26.902 45.6504 26.1295 45.0223C25.3551 44.3941 24.3782 43.4735 23.9582 42.9766C23.5382 42.4798 22.8501 41.5666 22.4301 40.9479C22.0101 40.3291 21.3689 39.2735 21.0051 38.6041C20.6414 37.9348 20.0751 36.7104 19.7507 35.8854C19.4245 35.0604 18.9576 33.7516 18.7139 32.9791C18.4682 32.2048 18.1007 30.8566 17.8926 29.9791C17.6864 29.1016 17.3339 27.2473 17.1107 25.8541C16.8145 24.0129 16.702 22.4791 16.6964 20.2291C16.6926 18.1479 16.792 16.5841 16.9982 15.4479C17.167 14.5198 17.5307 13.0854 17.8045 12.2604C18.0782 11.4354 18.5564 10.2541 18.8657 9.63538C19.177 9.01663 19.7451 8.04538 20.1276 7.47913C20.5101 6.91288 21.3632 5.90601 22.0232 5.24226C22.6832 4.58038 23.8139 3.64851 24.5357 3.17413C25.2576 2.69976 26.482 2.04538 27.2545 1.72101C28.0289 1.39663 29.377 0.961632 30.2545 0.755382C31.132 0.549132 32.2289 0.299757 32.692 0.202257C33.1551 0.104757 34.822 0.014757 36.3951 0.00163197ZM65.5982 58.8766C65.8045 58.8635 66.8601 58.9423 67.942 59.0548C69.0239 59.1673 70.5857 59.4729 71.4107 59.7335C72.2357 59.996 73.4601 60.4798 74.1295 60.8079C74.7989 61.136 75.8545 61.7341 76.4732 62.1373C77.092 62.5385 78.2789 63.5473 79.1095 64.376C79.9401 65.2066 81.0107 66.476 81.4889 67.1979C81.9651 67.9198 82.6926 69.311 83.1032 70.2916C83.5139 71.2722 83.9939 72.7479 84.172 73.5729C84.382 74.5423 84.4964 75.9016 84.4964 77.4166C84.4964 78.9372 84.382 80.2872 84.172 81.2604C83.992 82.0854 83.602 83.3941 83.3057 84.1666C83.0076 84.941 82.3214 86.2891 81.7795 87.1666C81.2376 88.0441 80.2439 89.3416 79.5707 90.0523C78.8995 90.761 77.8832 91.7004 77.317 92.1391C76.7507 92.5779 75.652 93.281 74.8795 93.701C74.1051 94.121 72.967 94.6404 72.3482 94.856C71.7295 95.0716 70.5276 95.4129 69.6764 95.6135C68.6339 95.861 67.4582 95.9791 66.067 95.9791C64.6214 95.9791 63.4851 95.8591 62.2701 95.576C61.3157 95.3548 59.9451 94.9329 59.2232 94.6366C58.5014 94.3422 57.2826 93.7422 56.5157 93.3054C55.6907 92.8347 54.3989 91.8204 53.3545 90.8229C52.3832 89.8948 51.2282 88.586 50.7876 87.9166C50.347 87.2473 49.732 86.1916 49.4226 85.5729C49.1132 84.9541 48.6501 83.7729 48.3932 82.9479C48.1345 82.1229 47.8176 80.6885 47.6882 79.7604C47.5495 78.7685 47.4989 77.3773 47.5664 76.3854C47.6282 75.4573 47.8814 73.8972 48.1307 72.9166C48.3801 71.936 48.8301 70.586 49.1339 69.9166C49.4357 69.2473 50.0901 68.0641 50.5889 67.2916C51.0876 66.5173 52.0532 65.3079 52.7339 64.6029C53.4164 63.8979 54.4795 62.9604 55.0982 62.5197C55.717 62.0791 56.6882 61.4604 57.2545 61.1435C57.8207 60.8266 58.8351 60.3635 59.5045 60.1141C60.1739 59.8648 61.1451 59.5591 61.6607 59.4354C62.1764 59.3116 63.1889 59.141 63.9107 59.0566C64.6326 58.9722 65.392 58.8916 65.5982 58.8766ZM63.3145 67.8541C62.9057 68.6322 62.872 68.9135 62.8757 71.4635L62.8795 74.2291C57.2807 74.3173 56.8964 74.366 56.2401 74.7354C55.7526 75.0104 55.3845 75.4166 55.1357 75.9541C54.8657 76.5354 54.7851 77.021 54.8432 77.6979C54.8901 78.2416 55.1001 78.8923 55.3401 79.2448C55.567 79.5804 56.092 80.0229 56.5045 80.2291C57.1551 80.5535 57.6295 80.6041 60.067 80.6041H62.8795C62.887 85.616 62.9507 86.276 63.2226 86.8854C63.4082 87.2979 63.8489 87.8454 64.2032 88.1041C64.7339 88.4904 65.0639 88.5729 66.067 88.5729C66.9989 88.5729 67.4189 88.481 67.8482 88.181C68.1576 87.9654 68.6001 87.416 68.8307 86.9622C69.2076 86.2179 69.2489 85.8579 69.2526 83.3698L69.2545 80.6041C74.5064 80.5985 74.8701 80.5573 75.6201 80.1804C76.0795 79.9497 76.6064 79.5072 76.792 79.1979C76.9776 78.8885 77.1801 78.341 77.2439 77.9791C77.3076 77.6172 77.3076 77.0491 77.2439 76.7135C77.182 76.3779 76.8126 75.761 76.4264 75.3429C76.0232 74.906 75.442 74.5066 75.067 74.4054C74.7051 74.3098 73.2501 74.231 71.8326 74.231L69.2545 74.2291C69.2545 69.6223 69.1757 68.606 68.9957 68.1823C68.8551 67.8466 68.4951 67.346 68.1989 67.0685C67.9026 66.7929 67.4282 66.476 67.1451 66.3654C66.862 66.2566 66.352 66.1666 66.0145 66.1666C65.6751 66.1666 65.0282 66.356 64.5782 66.5885C64.0007 66.8866 63.6295 67.2579 63.3145 67.8541ZM20.6451 46.4979C20.6714 46.4885 21.262 46.991 21.9576 47.6154C22.6532 48.2416 23.9395 49.2373 24.817 49.8279C25.6926 50.4185 27.0857 51.1835 27.9107 51.5266C28.7357 51.8698 30.2114 52.3591 31.192 52.6141C32.5101 52.9573 33.6557 53.1016 35.5982 53.171C37.5332 53.2404 38.7164 53.1841 40.0982 52.9572C41.1295 52.7866 42.5845 52.4416 43.3326 52.1885C44.0807 51.9354 45.3032 51.4216 46.0514 51.0466C46.7995 50.6716 47.917 50.021 48.5357 49.5991C49.1545 49.1773 50.2326 48.281 52.2051 46.3854L53.8401 47.1673C54.7382 47.5985 56.6957 48.371 58.192 48.8848C59.6882 49.4004 61.5014 50.066 62.2232 50.3641C62.9451 50.6641 63.9576 51.1948 64.4732 51.5454C64.9889 51.896 65.812 52.586 66.3014 53.081C66.7907 53.5741 67.1489 54.0635 67.0982 54.1666C67.0457 54.2698 66.2695 54.3541 65.3639 54.3541C64.462 54.3541 62.9639 54.4891 62.0357 54.6523C61.1076 54.8173 59.5889 55.2035 58.6607 55.5129C57.7326 55.8223 56.227 56.4691 55.3139 56.9491C54.4007 57.4291 52.9664 58.3404 52.1264 58.9704C51.2864 59.6022 50.0489 60.6991 49.3776 61.4079C48.7064 62.1185 47.7651 63.2473 47.2851 63.9166C46.807 64.586 46.072 65.7691 45.6539 66.5416C45.2339 67.316 44.6357 68.6435 44.3226 69.4948C44.0114 70.346 43.5782 71.906 43.3626 72.9635C43.0814 74.3398 42.967 75.6035 42.9632 77.4166C42.9595 78.9672 43.0739 80.5648 43.2576 81.5416C43.4207 82.4191 43.7789 83.8104 44.0526 84.6354C44.3264 85.4604 44.8626 86.7691 45.247 87.5416C45.6295 88.316 46.1676 89.306 46.942 90.5416L46.4264 90.626C46.1432 90.671 44.8551 90.8173 43.567 90.9485C42.277 91.0798 38.9864 91.1866 36.2545 91.1866C32.7145 91.1848 30.4776 91.091 28.4732 90.8548C26.9264 90.6748 24.3107 90.3129 22.6607 90.0541C21.0107 89.7935 18.2264 89.2854 16.4732 88.9235C14.7201 88.5616 11.977 87.9316 10.3795 87.5229C8.78011 87.1141 6.58636 86.4747 5.50448 86.1035C4.42073 85.7304 3.07073 85.2222 2.50448 84.9729C1.93636 84.7235 1.27448 84.3354 1.03261 84.1085C0.792608 83.8835 0.455108 83.4447 0.282608 83.1354C0.0388581 82.6929 -0.0192672 82.1154 0.00510782 80.4166C0.0219828 79.2316 0.132608 77.2479 0.252608 76.0104C0.370733 74.7729 0.631358 72.6223 0.833858 71.2291C1.03448 69.836 1.36823 67.7698 1.57636 66.6354C1.78448 65.501 2.12948 63.7723 2.34511 62.7916C2.56073 61.811 2.98823 60.251 3.29573 59.3229C3.60323 58.3948 4.24261 56.876 4.71698 55.9479C5.34886 54.7085 5.93011 53.906 6.89948 52.9273C7.92136 51.8998 8.58698 51.4216 9.81698 50.8329C10.6926 50.4148 12.6764 49.631 14.2232 49.0929C15.7701 48.5566 17.8364 47.756 18.817 47.3173C19.7957 46.8766 20.6189 46.5091 20.6451 46.4979Z" fill="#DDEBF3"/>
</svg>
